<?xml version="1.0" encoding="utf-8"?>
<!-- Generator: Adobe Illustrator 27.0.1, SVG Export Plug-In . SVG Version: 6.00 Build 0)  -->
<svg version="1.1" id="Layer_1" xmlns="http://www.w3.org/2000/svg" xmlns:xlink="http://www.w3.org/1999/xlink" x="0px" y="0px"
	 viewBox="0 0 80.7 100" style="enable-background:new 0 0 80.7 100;" xml:space="preserve">
<style type="text/css">
	.st0{fill:#083758;}
	.st1{fill:#9C8760;}
</style>
<path class="st0" d="M46.7,25.7c-0.7-0.4-1.2-0.9-1.7-1.7c-0.4-0.7-0.7-1.6-0.7-2.7c0-0.3,0-0.8,0.1-1.3c0.1-0.6,0.2-1.1,0.4-1.8
	c0.2-0.7,0.6-1.5,0.9-2.4s0.9-1.9,1.5-3c0.2,0.1,0.4,0.2,0.6,0.6c0.3,1.1,0.9,2,1.7,2.7c0.8,0.7,1.6,1.1,2.6,1.6
	c0.9,0.3,1.9,0.7,2.8,0.9c0.9,0.2,1.8,0.6,2.6,0.8c0.8,0.3,1.5,0.7,1.9,1.2c0.6,0.6,0.8,1.2,0.8,2.2c0,0.4-0.1,0.9-0.2,1.6
	c-0.1,0.7-0.3,1.3-0.7,2c-0.2,0.7-0.6,1.5-1,2.2c-0.3,0.8-0.8,1.6-1.3,2.2c-0.1,0.2-0.2,0.3-0.4,0.4c-0.2,0.1-0.4,0.2-0.7,0.2
	c-0.2,0.1-0.6,0.1-0.9,0.2c-0.3,0.1-0.8,0.2-1.2,0.2c-4.4,1-8.1,2.2-11.3,3.6c-3.1,1.3-5.8,3-7.9,4.8c-2.1,1.8-3.6,3.9-4.6,6.3
	c-1,2.4-1.5,4.9-1.5,7.9c0,1.9,0.1,3.9,0.4,6c0.3,2.1,0.7,4.3,1.2,6.4s1,4.3,1.7,6.4s1.2,4.3,1.9,6.2c0.7,2,1.3,3.9,1.9,5.7
	c0.7,1.8,1.2,3.4,1.7,4.8s0.9,2.7,1.2,3.7c0.3,1,0.4,1.8,0.4,2.2c0,0.1,0,0.2,0,0.3c0,0.1-0.1,0.1-0.2,0.1c-0.2,0-0.6-0.4-1-1.2
	c-0.6-0.8-1-2-1.7-3.5c-1.6-3.8-3-7.6-4.3-11.2c-1.2-3.6-2.2-7.1-3.1-10.3c-0.9-3.3-1.5-6.3-1.9-9.2c-0.4-2.8-0.7-5.4-0.7-7.6
	s0.2-4.5,0.6-6.5c0.3-2,0.9-4,1.7-6c0.6-1.7,1.5-3.3,2.5-4.7c1-1.5,2.2-2.8,3.8-4.2c1.5-1.2,3.3-2.5,5.3-3.5
	C41.9,27.5,44.1,26.5,46.7,25.7L46.7,25.7z"/>
<path class="st1" d="M53.4,35.1c-0.1-0.1-0.2-0.3-0.2-0.4l0,0v-0.1c0-0.1,0-0.2,0.1-0.2c0.1-0.1,0.1-0.2,0.1-0.3
	c0.1-0.1,0.1-0.2,0.2-0.3c0.1-0.1,0.3-0.2,0.4-0.3c0.1,0,0.1,0,0.2,0h0.1c0.1,0,0.2,0.1,0.2,0.2s0,0.2,0,0.3v0.1
	c0,0.1,0,0.3-0.1,0.4l0,0.4l0.3,0.2c0.1,0.1,0.1,0.1,0.2,0.2v0.1l-0.1,0.2c0,0.1,0,0.1-0.1,0.2c0,0.1-0.1,0.1-0.1,0.1
	s-0.1-0.1-0.2-0.2s-0.2-0.1-0.2-0.2c0,0-0.1,0.2-0.3,0.4c-0.2,0.2-0.4,0.4-0.8,0.7c-0.1,0.1-0.4,0.3-0.8,0.6
	c-0.3,0.2-0.6,0.3-0.7,0.3s-0.3,0.1-0.7,0.2l-0.9,0.3h0.1c-0.1,0.1-0.2,0.1-0.2,0.1l0,0c0,0,0.1-0.1,0.2-0.2c0.3-0.2,0.7-0.4,1-0.6
	c0.1-0.1,0.3-0.2,0.4-0.3c0.2-0.1,0.4-0.2,0.6-0.3l-0.1,0.1c0,0,0.3-0.2,1.1-0.7c0.3-0.2,0.6-0.4,0.8-0.7
	C53.6,35.3,53.5,35.2,53.4,35.1z M54.3,34.7c0-0.1,0-0.2,0-0.3c0,0,0-0.1,0-0.2c0-0.2-0.1-0.2-0.2-0.2s-0.1,0-0.2,0.1
	c-0.1,0-0.1,0.1-0.1,0.2s0.1,0.2,0.2,0.2C53.9,34.5,54,34.6,54.3,34.7z"/>
<path class="st1" d="M54.4,3.5c0.7,0,0.8,0.6,0.8,0.9c0,1.3-1.6,3.5-1.6,3.5L34,11.6l-3-1.3L54.4,3.5z"/>
<path class="st1" d="M36.7,26.7L36.7,26.7C36.6,26.6,36.6,26.6,36.7,26.7c0-0.1,0-0.1,0-0.2s0.1-0.2,0.1-0.4
	c0.1-0.2,0.2-0.4,0.3-0.7c0.1-0.2,0.3-0.4,0.6-0.7c0.2-0.1,0.3-0.3,0.6-0.4c0.2-0.1,0.3-0.2,0.6-0.4c0.2-0.2,0.3-0.2,0.6-0.3
	c0.2-0.1,0.4-0.2,0.6-0.2l0,0c0-0.1,0-0.1-0.1-0.2c0-0.1,0-0.2,0-0.2c0-0.1,0-0.2,0-0.3c0-0.1,0-0.2,0.1-0.3
	c0.1-0.2,0.1-0.3,0.2-0.4c0-0.1,0.1-0.1,0.1-0.1h0.1c0,0,0,0,0,0.1c0,0.1,0,0.1,0,0.2c0,0.1,0,0.1,0,0.2s0,0.2,0.1,0.3
	c0.1,0.1,0.2,0.1,0.3,0.2c0.1,0,0.2,0.1,0.4,0.1c0.1,0,0.3,0.1,0.4,0.1s0.2,0.1,0.3,0.2c0.1,0.1,0.1,0.1,0.1,0.2s0,0.2,0,0.3
	s-0.1,0.2-0.1,0.3c-0.1,0.1-0.1,0.2-0.2,0.3c-0.1,0.1-0.2,0.2-0.3,0.3c-0.1-0.1-0.3-0.1-0.6-0.1c-0.2,0-0.3,0-0.6,0
	c-0.1,0-0.3,0-0.4,0.1c-0.2,0-0.3,0.1-0.6,0.2c-0.2,0.1-0.4,0.2-0.7,0.3c-0.2,0.1-0.6,0.3-0.8,0.6c-0.2,0.2-0.4,0.3-0.7,0.6
	C37.1,26.3,37,26.4,36.7,26.7C36.8,26.6,36.8,26.6,36.7,26.7L36.7,26.7z"/>
</svg>
