<?xml version="1.0" encoding="utf-8"?>
<!-- Generator: Adobe Illustrator 27.0.1, SVG Export Plug-In . SVG Version: 6.00 Build 0)  -->
<svg version="1.1" id="Layer_1" xmlns="http://www.w3.org/2000/svg" xmlns:xlink="http://www.w3.org/1999/xlink" x="0px" y="0px"
	 viewBox="0 0 160 72.89" style="enable-background:new 0 0 160 72.89;" xml:space="preserve">
<style type="text/css">
	.st0{fill:#9C8760;}
	.st1{fill:#083758;}
</style>
<g>
	<path class="st0" d="M11.3,31.63c0.37,0,0.55-0.2,0.55-0.59c0-0.37-0.18-0.56-0.55-0.56c-0.38,0-0.58,0.19-0.58,0.56
		C10.73,31.43,10.92,31.63,11.3,31.63z"/>
	<path class="st0" d="M18.99,37.02c0,1.07-0.52,1.6-1.55,1.6h-0.21h-0.28H15.6h-0.28h-1.35h-0.28h-0.21c-1.03,0-1.55-0.53-1.55-1.6
		v-3.54L11,33.97v3.05c0,1.07-0.52,1.6-1.55,1.6H9.24H8.96H7.61H7.33H5.98H5.7H5.49c-1.03,0-1.55-0.53-1.55-1.6v-6.59L3,30.92v6.13
		c0,0.67,0.18,1.23,0.53,1.67c0.43,0.52,1.04,0.77,1.84,0.77H5.7h0.28h1.35h0.28h1.35h0.28h0.32c0.83,0,1.47-0.29,1.91-0.86
		c0.42,0.57,1.05,0.86,1.9,0.86h0.32h0.28h1.35h0.28h1.35h0.28h0.32c0.7,0,1.26-0.2,1.69-0.6c0.46-0.44,0.69-1.05,0.69-1.84v-3.57
		l-0.94,0.49V37.02z"/>
	<path class="st0" d="M18.85,30.63c0-0.13,0.05-0.25,0.15-0.34c0.1-0.1,0.23-0.15,0.38-0.15c0.18,0,0.36,0.07,0.55,0.2v-0.52
		c-0.2-0.13-0.4-0.2-0.6-0.2c-0.27,0-0.51,0.1-0.7,0.29c-0.2,0.19-0.3,0.42-0.3,0.68c0,0.18,0.05,0.35,0.14,0.52h-0.37l-0.27,0.49
		h2.18l0.27-0.49h-1.24C18.92,30.95,18.85,30.79,18.85,30.63z"/>
	<path class="st0" d="M45.41,37.99c-0.43-0.43-0.65-1.01-0.65-1.73c0-0.63,0.18-1.13,0.53-1.52c0.35-0.38,0.81-0.58,1.37-0.58h0.04
		c0.88,0,1.6,0.4,2.16,1.21v-0.93c-0.54-0.76-1.3-1.14-2.26-1.14c-0.69,0.01-1.3,0.23-1.81,0.67c-0.65,0.55-0.97,1.3-0.97,2.25
		c0,0.99,0.3,1.79,0.89,2.39h-2.08h-0.28H41h-0.28h-0.2c-1.04,0-1.56-0.53-1.56-1.6v-0.48c0-0.94-0.2-1.69-0.6-2.25
		c-0.46-0.66-1.13-0.98-2.01-0.98c-0.77,0-1.38,0.25-1.84,0.76c-0.52,0.57-0.79,1.4-0.79,2.47v0.48c0,1.07-0.52,1.6-1.55,1.6h-0.21
		h-0.28h-1.35h-0.28h-0.21c-1.03,0-1.55-0.53-1.55-1.6v-3.54l-0.01,0.01v-3.06l-0.93,0.49v6.04c0,1.11-0.53,1.66-1.6,1.66h-0.98
		v-6.37l-0.93,0.49v5.87h-2.15l-0.45,0.87h4.61c0.86,0,1.51-0.3,1.95-0.89c0.42,0.59,1.06,0.89,1.93,0.89h0.32h0.28h1.35h0.28h0.32
		c0.85,0,1.49-0.29,1.93-0.87c0.46,0.77,1.17,1.15,2.14,1.15c0.96,0,1.67-0.39,2.14-1.17c0.42,0.59,1.06,0.89,1.91,0.89h0.32H41
		h1.35h0.28h6.91v-0.87h-2.47C46.37,38.62,45.82,38.41,45.41,37.99z M37.57,38.27c-0.3,0.43-0.71,0.64-1.22,0.64
		c-1.12,0-1.69-0.79-1.69-2.37c0-1.57,0.56-2.36,1.69-2.36c1.11,0,1.67,0.79,1.67,2.36C38.02,37.26,37.87,37.84,37.57,38.27z"/>
	<path class="st0" d="M56.23,31.56c0.37,0,0.55-0.2,0.55-0.59c0-0.37-0.18-0.56-0.55-0.56c-0.38,0-0.58,0.19-0.58,0.56
		C55.65,31.36,55.85,31.56,56.23,31.56z"/>
	<path class="st0" d="M57.83,31.56c0.37,0,0.55-0.2,0.55-0.59c0-0.37-0.18-0.56-0.55-0.56c-0.38,0-0.58,0.19-0.58,0.56
		C57.26,31.36,57.45,31.56,57.83,31.56z"/>
	<path class="st0" d="M67.28,31.67c0.37,0,0.55-0.2,0.55-0.59c0-0.37-0.18-0.56-0.55-0.56c-0.38,0-0.58,0.19-0.58,0.56
		C66.7,31.47,66.89,31.67,67.28,31.67z"/>
	<path class="st0" d="M68.88,31.67c0.37,0,0.55-0.2,0.55-0.59c0-0.37-0.18-0.56-0.55-0.56c-0.38,0-0.58,0.19-0.58,0.56
		C68.3,31.47,68.49,31.67,68.88,31.67z"/>
	<path class="st0" d="M77.13,37.02c0,1.07-0.52,1.6-1.55,1.6h-0.21h-0.28h-1.35h-0.28h-1.35h-0.28h-2.29
		c0.73-0.67,1.1-1.48,1.1-2.43c0-0.79-0.2-1.44-0.59-1.95c-0.47-0.62-1.13-0.93-1.98-0.93c-0.75,0-1.35,0.24-1.81,0.72
		c-0.51,0.53-0.76,1.26-0.76,2.16c0,0.94,0.37,1.75,1.11,2.43h-2.3h-0.28h-1.35h-0.28h-1.35h-0.28h-0.2c-1.04,0-1.56-0.53-1.56-1.6
		v-4.38l-0.94,0.49v0.76c-0.41-0.36-0.92-0.53-1.53-0.53c-0.67,0-1.24,0.24-1.7,0.72c-0.52,0.54-0.79,1.26-0.79,2.16
		c0,0.77,0.2,1.41,0.59,1.93c0.47,0.61,1.11,0.91,1.91,0.91c0.71,0,1.31-0.25,1.8-0.76c0.39,0.79,1.09,1.18,2.09,1.18h0.32h0.28
		h1.35h0.28h1.35h0.28h2.89c0.32,0,0.61-0.03,0.87-0.1c0.26,0.07,0.55,0.1,0.87,0.1h2.89h0.28h1.35h0.28h1.35h0.28h0.32
		c0.7,0,1.26-0.2,1.69-0.6c0.46-0.44,0.69-1.05,0.69-1.84v-3.57l-0.94,0.49V37.02z M56.57,38.26c-0.48,0-0.86-0.18-1.16-0.55
		s-0.44-0.85-0.44-1.46c0-0.6,0.15-1.09,0.44-1.47s0.68-0.57,1.15-0.57c0.59,0,1.09,0.25,1.5,0.74v2.09c0,0.1,0.01,0.24,0.03,0.41
		C57.68,37.99,57.18,38.26,56.57,38.26z M68.12,38.5h-0.03l-0.03,0.01l-0.06-0.01c-0.48-0.17-0.87-0.47-1.17-0.91
		c-0.3-0.44-0.45-0.91-0.45-1.43c0-0.61,0.15-1.09,0.45-1.45c0.3-0.36,0.71-0.54,1.22-0.54c0.52,0,0.93,0.18,1.23,0.54
		c0.3,0.36,0.46,0.85,0.46,1.47c0,0.51-0.15,0.98-0.46,1.41C68.99,38.03,68.6,38.33,68.12,38.5z"/>
	<path class="st0" d="M75.93,31.63c0.37,0,0.55-0.2,0.55-0.59c0-0.37-0.18-0.56-0.55-0.56c-0.38,0-0.58,0.19-0.58,0.56
		C75.36,31.43,75.55,31.63,75.93,31.63z"/>
	<path class="st0" d="M77.53,30.47c-0.38,0-0.58,0.19-0.58,0.56c0,0.39,0.19,0.59,0.58,0.59c0.37,0,0.55-0.2,0.55-0.59
		C78.08,30.66,77.9,30.47,77.53,30.47z"/>
	<path class="st0" d="M76.72,30.16c0.34,0,0.51-0.18,0.51-0.53c0-0.35-0.17-0.52-0.51-0.52c-0.35,0-0.52,0.17-0.52,0.52
		C76.2,29.99,76.37,30.16,76.72,30.16z"/>
	<path class="st0" d="M81.2,38.37c-0.38,0-0.59,0.19-0.6,0.58c0,0.41,0.2,0.62,0.6,0.62c0.38,0,0.58-0.2,0.58-0.6
		c0-0.01,0-0.02,0-0.03C81.78,38.56,81.58,38.37,81.2,38.37z"/>
	<path class="st0" d="M84.91,38.37c-0.38,0-0.59,0.19-0.6,0.58c0,0.41,0.2,0.62,0.6,0.62c0.38,0,0.58-0.2,0.58-0.6
		c0-0.01,0-0.02,0-0.03C85.49,38.56,85.29,38.37,84.91,38.37z"/>
	<path class="st0" d="M89.48,31.56c0.37,0,0.56-0.2,0.56-0.59c0-0.37-0.19-0.56-0.56-0.56c-0.37,0-0.56,0.19-0.56,0.56
		C88.92,31.36,89.1,31.56,89.48,31.56z"/>
	<path class="st0" d="M90.38,33.31c-1.74,0.6-2.61,1.77-2.61,3.5c0,0.76,0.2,1.38,0.59,1.85c0.47,0.55,1.12,0.83,1.95,0.83h0.14
		c0.73,0,1.32-0.22,1.77-0.65c0.52-0.49,0.77-1.17,0.77-2.04C92.99,35.08,92.12,33.91,90.38,33.31z M91.64,38.14
		c-0.28,0.32-0.67,0.48-1.15,0.48h-0.22c-0.49,0-0.87-0.16-1.15-0.49c-0.28-0.33-0.42-0.77-0.42-1.32c0-1.25,0.56-2.13,1.69-2.64
		c1.12,0.52,1.69,1.4,1.69,2.64C92.06,37.37,91.92,37.82,91.64,38.14z"/>
	<path class="st0" d="M91.08,31.56c0.37,0,0.56-0.2,0.56-0.59c0-0.37-0.19-0.56-0.56-0.56c-0.37,0-0.56,0.19-0.56,0.56
		C90.52,31.36,90.7,31.56,91.08,31.56z"/>
	<path class="st0" d="M97,33.33l-0.45,0.77c1.2,0.68,1.8,1.71,1.8,3.08c0,0.53-0.09,0.91-0.26,1.12c-0.17,0.22-0.48,0.32-0.91,0.32
		h-2.64l-0.45,0.87h3.25c1.3,0,1.95-0.77,1.95-2.3C99.29,35.5,98.52,34.22,97,33.33z"/>
	<path class="st0" d="M117.06,34.27c-0.47-0.64-1.14-0.96-2.01-0.96c-0.67,0-1.22,0.19-1.63,0.56c-0.48,0.44-0.72,1.06-0.72,1.85
		v1.29c0,1.07-0.52,1.6-1.55,1.6h-0.21h-0.28h-1.35h-0.28h-1.35h-0.28h-1.21v-2.89c0-0.7-0.19-1.26-0.56-1.69
		c-0.43-0.49-1.05-0.73-1.87-0.73c-0.79,0-1.41,0.25-1.88,0.74c-0.52,0.55-0.79,1.33-0.79,2.35c0,0.86,0.21,1.55,0.63,2.07
		c0.52,0.61,1.29,0.94,2.33,0.98l1.19,0.04c0,0.3-0.1,0.6-0.3,0.91c-0.2,0.3-0.44,0.53-0.73,0.68c-0.29,0.17-0.63,0.25-1.01,0.25
		c-0.48,0-0.96-0.13-1.45-0.39v0.83c0.52,0.26,1.04,0.39,1.59,0.39c0.26,0,0.51-0.03,0.73-0.1c0.62-0.15,1.12-0.46,1.51-0.93
		c0.39-0.47,0.59-1.02,0.6-1.64h1.21h0.28h1.35h0.28h1.35h0.28h0.32c0.84,0,1.48-0.28,1.9-0.84c0.43,0.56,1.09,0.84,1.97,0.84
		c0.72,0,1.31-0.25,1.76-0.74c0.52-0.56,0.77-1.34,0.77-2.35C117.67,35.52,117.47,34.81,117.06,34.27z M105.26,38.62
		c-0.37,0-0.75-0.01-1.17-0.04c-1.38-0.07-2.07-0.8-2.07-2.19c0-0.7,0.15-1.25,0.46-1.64c0.3-0.39,0.73-0.58,1.29-0.58
		c0.99,0,1.49,0.55,1.49,1.66V38.62z M116.32,38.03c-0.28,0.39-0.67,0.59-1.15,0.59c-1.01,0-1.52-0.52-1.52-1.55v-1.26
		c0-1.1,0.47-1.64,1.41-1.64c0.53,0,0.95,0.2,1.24,0.59s0.44,0.94,0.44,1.63C116.74,37.09,116.6,37.64,116.32,38.03z"/>
</g>
<g>
	<path class="st0" d="M125.31,56.07c-0.53,0.33-1,0.66-1.41,1c-0.41,0.34-0.79,0.69-1.14,1.05c-0.07,0.07-0.13,0.14-0.2,0.22
		c-0.08,0.08-0.14,0.12-0.2,0.12c-0.06,0-0.09-0.02-0.09-0.06c-0.01-0.04-0.01-0.09-0.01-0.14c0-0.06,0.11-0.44,0.34-1.16
		c0.23-0.72,0.55-1.73,0.98-3.04c0.03-0.07,0.08-0.13,0.14-0.19c0.06-0.06,0.12-0.12,0.19-0.17c0.49-0.35,0.96-0.67,1.42-0.96
		c0.46-0.29,0.94-0.56,1.42-0.83c0.22-0.45,0.44-0.86,0.65-1.23c0.22-0.37,0.41-0.66,0.57-0.89c0.12-0.13,0.23-0.25,0.33-0.35
		c0.1-0.1,0.21-0.19,0.33-0.28l0.03,0.07v0.23c-0.12,0.29-0.24,0.56-0.35,0.83c-0.11,0.26-0.22,0.54-0.31,0.83l0.07,0.07
		c1.22-0.53,2.34-0.79,3.34-0.79c0.62,0,1.19,0.11,1.7,0.32c0.52,0.22,0.96,0.53,1.33,0.94c0.37,0.41,0.66,0.92,0.86,1.51
		c0.2,0.59,0.31,1.25,0.31,1.99c0,0.43-0.02,0.88-0.05,1.34c-0.03,0.46-0.09,0.92-0.18,1.37c-0.13,0.82-0.26,1.51-0.37,2.08
		c-0.12,0.57-0.24,1.08-0.38,1.51c-0.14,0.43-0.3,0.82-0.48,1.17c-0.18,0.35-0.4,0.69-0.65,1.03c-0.28,0.36-0.57,0.71-0.89,1.05
		c-0.32,0.34-0.67,0.63-1.04,0.89c-0.37,0.25-0.78,0.46-1.21,0.61c-0.43,0.15-0.89,0.23-1.39,0.23c-0.49,0-0.97-0.11-1.46-0.31
		c-0.49-0.21-0.93-0.56-1.32-1.05c-0.39-0.49-0.71-1.13-0.95-1.93c-0.24-0.79-0.36-1.78-0.36-2.96c0-0.53,0.04-1.12,0.11-1.77
		c0.07-0.65,0.2-1.42,0.39-2.3L125.31,56.07z M126.73,55.6c-0.26,0.58-0.46,1.11-0.6,1.57c-0.13,0.46-0.2,0.85-0.2,1.17
		c0,0.67,0.08,1.25,0.24,1.75c0.16,0.49,0.37,0.9,0.65,1.22c0.27,0.32,0.58,0.56,0.93,0.71c0.35,0.15,0.71,0.23,1.1,0.23
		c0.75,0,1.46-0.18,2.13-0.54c0.67-0.36,1.25-0.8,1.75-1.32c0.5-0.52,0.89-1.06,1.18-1.64c0.29-0.57,0.44-1.08,0.44-1.51
		c0-0.39-0.09-0.76-0.27-1.13c-0.18-0.37-0.44-0.69-0.76-0.98c-0.33-0.28-0.71-0.51-1.15-0.68c-0.44-0.17-0.92-0.26-1.42-0.26
		c-0.34,0-0.7,0.04-1.07,0.11c-0.37,0.07-0.73,0.17-1.08,0.29c-0.35,0.12-0.69,0.27-1.01,0.44
		C127.26,55.22,126.98,55.41,126.73,55.6z"/>
	<path class="st0" d="M140.79,59.85c-0.06,0-0.09-0.02-0.11-0.06c-0.02-0.04-0.02-0.09-0.02-0.14c0-0.3-0.11-0.6-0.32-0.89
		c-0.22-0.3-0.45-0.61-0.72-0.94c-0.26-0.33-0.5-0.69-0.72-1.07c-0.22-0.38-0.32-0.8-0.32-1.27c0-0.34,0.03-0.68,0.08-1.02
		c0.06-0.34,0.12-0.66,0.19-0.98c0.07-0.32,0.15-0.63,0.22-0.94c0.08-0.3,0.14-0.58,0.2-0.86c0.15-0.82,0.39-1.52,0.69-2.11
		c0.31-0.59,0.68-1.08,1.1-1.46c0.42-0.38,0.89-0.66,1.41-0.84c0.51-0.18,1.06-0.26,1.63-0.26c0.74,0,1.43,0.16,2.07,0.49
		c0.64,0.33,1.2,0.77,1.67,1.33c0.47,0.56,0.85,1.21,1.12,1.95c0.27,0.74,0.41,1.52,0.41,2.35c0,0.5-0.06,1.02-0.17,1.58
		c-0.12,0.56-0.23,1.07-0.36,1.53c-0.3,1.28-0.62,2.36-0.98,3.23c-0.35,0.88-0.75,1.63-1.18,2.25c-0.44,0.62-0.92,1.15-1.45,1.58
		c-0.53,0.43-1.11,0.83-1.75,1.21c-0.41,0.24-0.87,0.45-1.37,0.62c-0.51,0.17-1.03,0.32-1.56,0.44c-0.53,0.12-1.06,0.22-1.58,0.31
		c-0.52,0.08-1.01,0.15-1.46,0.2c-0.45,0.05-0.84,0.09-1.17,0.12c-0.34,0.03-0.59,0.07-0.74,0.1c-0.33,0.06-0.62,0.13-0.86,0.23
		c-0.25,0.09-0.44,0.13-0.56,0.13c-0.12,0-0.2-0.02-0.22-0.05c-0.03-0.03-0.04-0.08-0.04-0.15c0-0.03,0.03-0.07,0.1-0.12
		c0.07-0.05,0.15-0.1,0.25-0.17c0.1-0.06,0.2-0.12,0.31-0.17c0.11-0.06,0.21-0.11,0.3-0.17c0.77-0.41,1.63-0.86,2.56-1.36
		c0.94-0.5,1.88-1.03,2.84-1.6c0.95-0.56,1.88-1.16,2.77-1.78c0.89-0.62,1.68-1.26,2.37-1.91c0.69-0.65,1.24-1.31,1.66-1.98
		c0.42-0.67,0.63-1.33,0.63-1.99c0-0.44-0.09-0.91-0.27-1.41c-0.18-0.5-0.45-0.97-0.82-1.4c-0.36-0.43-0.82-0.79-1.38-1.07
		c-0.56-0.28-1.21-0.42-1.96-0.42c-0.43,0-0.83,0.06-1.2,0.17c-0.37,0.12-0.69,0.26-0.97,0.45c-0.28,0.18-0.49,0.39-0.65,0.61
		c-0.15,0.23-0.23,0.44-0.23,0.65c0,0.2,0.09,0.41,0.26,0.62c0.17,0.22,0.36,0.45,0.57,0.7c0.21,0.26,0.4,0.55,0.57,0.87
		c0.17,0.31,0.26,0.66,0.26,1.05c0,0.5-0.07,1.05-0.22,1.67c-0.14,0.62-0.36,1.25-0.65,1.9c-0.03,0.07-0.06,0.12-0.09,0.17
		C140.9,59.83,140.85,59.85,140.79,59.85z"/>
	<path class="st0" d="M151.54,34.34c-0.06,0.25-0.12,0.49-0.17,0.74c-0.05,0.25-0.1,0.5-0.14,0.75c-0.27,1.42-0.63,2.66-1.08,3.71
		c-0.45,1.05-0.97,1.96-1.55,2.72c-0.58,0.76-1.23,1.39-1.93,1.88c-0.7,0.5-1.44,0.91-2.22,1.22c-0.84,0.35-1.69,0.59-2.54,0.73
		c-0.85,0.13-1.67,0.21-2.44,0.24c-0.77,0.03-1.47,0.03-2.11,0c-0.63-0.03-1.14-0.03-1.52-0.02c-0.19,0-0.39,0.01-0.59,0.04
		c-0.2,0.02-0.39,0.05-0.57,0.07c-0.18,0.03-0.34,0.05-0.47,0.06c-0.13,0.02-0.21,0.02-0.25,0.02c-0.17-0.03-0.25-0.09-0.24-0.17
		c0.01-0.03,0.07-0.08,0.19-0.14c0.12-0.06,0.27-0.12,0.44-0.2c0.17-0.07,0.34-0.14,0.53-0.21c0.18-0.06,0.34-0.12,0.47-0.16
		c2.25-0.76,4.26-1.59,6.02-2.49c1.77-0.9,3.26-1.81,4.49-2.72c1.23-0.91,2.19-1.79,2.88-2.63c0.69-0.85,1.09-1.6,1.2-2.25
		c0.06-0.35,0.05-0.69-0.02-1.02c-0.07-0.33-0.22-0.63-0.47-0.91l-0.16-0.03c-0.51,0.32-0.99,0.53-1.45,0.63
		c-0.45,0.1-0.9,0.12-1.35,0.04c-0.45-0.07-0.83-0.22-1.16-0.44c-0.33-0.22-0.6-0.47-0.81-0.77c-0.21-0.3-0.36-0.61-0.45-0.95
		c-0.08-0.33-0.1-0.66-0.05-0.97c0.04-0.23,0.12-0.53,0.23-0.89c0.12-0.37,0.26-0.76,0.42-1.19c0.16-0.43,0.33-0.87,0.51-1.32
		c0.18-0.46,0.36-0.88,0.52-1.28c0.13-0.32,0.29-0.63,0.47-0.9c0.18-0.28,0.38-0.51,0.61-0.69c0.23-0.18,0.48-0.31,0.75-0.39
		c0.28-0.08,0.57-0.1,0.89-0.05c0.4,0.07,0.77,0.21,1.1,0.43c0.33,0.22,0.63,0.49,0.88,0.82c0.25,0.33,0.47,0.71,0.64,1.14
		c0.18,0.43,0.31,0.88,0.41,1.37c0.12,0.58,0.2,1.13,0.26,1.65c0.06,0.52,0.09,1.04,0.09,1.53c0,0.5-0.02,0.99-0.07,1.48
		C151.69,33.34,151.62,33.84,151.54,34.34z"/>
	<path class="st0" d="M148.82,18.3c-0.36-0.22-0.68-0.52-0.93-0.91c-0.26-0.39-0.39-0.89-0.39-1.51c0-0.21,0.02-0.45,0.07-0.74
		c0.05-0.28,0.13-0.61,0.26-0.99c0.12-0.38,0.29-0.82,0.5-1.31c0.22-0.49,0.49-1.06,0.82-1.7c0.13,0.03,0.23,0.14,0.3,0.33
		c0.21,0.64,0.53,1.14,0.95,1.5c0.42,0.36,0.89,0.64,1.41,0.85c0.51,0.21,1.04,0.38,1.58,0.51c0.53,0.13,1.01,0.28,1.45,0.45
		c0.44,0.17,0.79,0.4,1.08,0.69c0.28,0.29,0.42,0.69,0.42,1.22c0,0.23-0.04,0.52-0.12,0.87c-0.08,0.35-0.2,0.72-0.35,1.12
		c-0.15,0.4-0.33,0.81-0.55,1.24c-0.22,0.43-0.46,0.84-0.74,1.24c-0.07,0.1-0.15,0.18-0.25,0.23c-0.1,0.06-0.22,0.1-0.36,0.14
		c-0.14,0.04-0.31,0.07-0.51,0.11c-0.2,0.04-0.43,0.09-0.69,0.15c-2.42,0.56-4.51,1.23-6.27,2.01c-1.76,0.78-3.23,1.68-4.38,2.71
		c-1.16,1.03-2.02,2.19-2.57,3.48c-0.56,1.3-0.84,2.74-0.84,4.34c0,1.06,0.08,2.17,0.25,3.33c0.17,1.16,0.39,2.34,0.66,3.54
		c0.28,1.2,0.59,2.39,0.94,3.58c0.35,1.19,0.71,2.34,1.08,3.45c0.36,1.11,0.72,2.16,1.08,3.15c0.35,0.99,0.67,1.89,0.94,2.7
		c0.28,0.8,0.5,1.49,0.66,2.07c0.17,0.57,0.25,1,0.25,1.27c0,0.06-0.01,0.11-0.02,0.17c-0.01,0.06-0.05,0.09-0.12,0.09
		c-0.1,0-0.29-0.23-0.57-0.69c-0.28-0.46-0.59-1.1-0.92-1.92c-0.88-2.15-1.67-4.24-2.36-6.25c-0.69-2.02-1.27-3.94-1.75-5.76
		c-0.47-1.82-0.84-3.52-1.08-5.1c-0.25-1.58-0.37-3-0.37-4.27s0.1-2.48,0.31-3.62c0.21-1.15,0.51-2.24,0.91-3.29
		c0.34-0.92,0.8-1.78,1.36-2.6c0.57-0.82,1.27-1.58,2.1-2.28c0.83-0.71,1.81-1.35,2.92-1.94c1.11-0.58,2.38-1.1,3.81-1.56
		L148.82,18.3z"/>
	<path class="st1" d="M152.51,23.5c-0.09-0.07-0.14-0.16-0.14-0.26l0.01-0.03c0-0.02,0.01-0.04,0.01-0.05
		c0.02-0.06,0.03-0.11,0.03-0.15c0.04-0.08,0.07-0.13,0.09-0.16c0.04-0.06,0.09-0.12,0.15-0.17c0.08-0.08,0.16-0.14,0.26-0.17
		c0.05-0.02,0.09-0.03,0.13-0.03c0.03,0,0.05,0.01,0.07,0.02c0.07,0.02,0.11,0.07,0.14,0.15c0.01,0.07,0.02,0.13,0.02,0.18
		c0,0.02,0,0.04-0.01,0.06c0,0.09-0.01,0.18-0.03,0.27l-0.06,0.22l0.16,0.1c0.05,0.03,0.08,0.08,0.11,0.13
		c0,0.01-0.01,0.03-0.02,0.08l-0.06,0.11c-0.01,0.04-0.03,0.08-0.06,0.11c-0.03,0.05-0.05,0.07-0.06,0.08
		c-0.02-0.03-0.06-0.07-0.14-0.11c-0.06-0.06-0.11-0.09-0.13-0.1c-0.02,0.02-0.08,0.11-0.21,0.26c-0.1,0.13-0.24,0.25-0.41,0.37
		c-0.09,0.07-0.23,0.17-0.43,0.3c-0.21,0.11-0.33,0.18-0.37,0.19c-0.07,0.03-0.19,0.08-0.36,0.14l-0.51,0.17l0.04-0.01
		c-0.08,0.03-0.14,0.05-0.15,0.05c-0.01,0-0.01,0-0.01-0.01c0-0.03,0.05-0.07,0.14-0.11c0.19-0.13,0.38-0.24,0.54-0.33
		c0.06-0.04,0.16-0.1,0.28-0.17c0.13-0.08,0.22-0.13,0.29-0.17l-0.08,0.05c0,0,0.21-0.14,0.62-0.4c0.19-0.14,0.34-0.27,0.45-0.39
		C152.67,23.61,152.57,23.54,152.51,23.5z M153,23.29c0.02-0.05,0.03-0.1,0.03-0.18c0-0.03,0-0.06-0.01-0.1
		c-0.01-0.1-0.06-0.15-0.15-0.15c-0.03,0-0.08,0.02-0.13,0.05c-0.06,0.03-0.09,0.06-0.09,0.1c0,0.05,0.04,0.1,0.11,0.14
		C152.82,23.18,152.9,23.23,153,23.29z"/>
	<path class="st1" d="M128.18,44.78c-0.05,0.27-0.14,0.59-0.27,0.94c-0.13,0.35-0.26,0.68-0.4,1c-0.14,0.31-0.27,0.58-0.4,0.79
		c-0.12,0.21-0.2,0.32-0.24,0.32c-0.13,0-0.3-0.04-0.51-0.13c-0.21-0.09-0.44-0.2-0.68-0.33c-0.25-0.14-0.5-0.29-0.75-0.46
		c-0.25-0.17-0.49-0.35-0.71-0.52c-0.22-0.18-0.4-0.35-0.55-0.52c-0.15-0.17-0.25-0.31-0.29-0.43c0-0.06,0.06-0.24,0.17-0.53
		c0.12-0.29,0.25-0.61,0.4-0.96c0.15-0.34,0.31-0.66,0.47-0.96c0.16-0.29,0.29-0.47,0.38-0.53c0.16,0.18,0.38,0.39,0.64,0.62
		c0.26,0.23,0.55,0.45,0.87,0.67c0.31,0.22,0.63,0.42,0.96,0.62C127.59,44.53,127.9,44.67,128.18,44.78z M129.76,41.49
		c0.42,0.52,0.93,0.98,1.54,1.38c0.61,0.41,1.23,0.72,1.86,0.96c-0.21,0.56-0.4,1.02-0.57,1.4c-0.17,0.38-0.31,0.68-0.43,0.9
		c-0.12,0.23-0.22,0.39-0.3,0.49c-0.08,0.1-0.13,0.15-0.16,0.15c-0.08,0-0.21-0.03-0.38-0.1c-0.17-0.07-0.37-0.16-0.59-0.28
		c-0.22-0.12-0.46-0.26-0.71-0.42c-0.25-0.16-0.48-0.32-0.71-0.5c-0.22-0.18-0.42-0.36-0.59-0.56c-0.17-0.2-0.29-0.39-0.36-0.57
		c0-0.07,0.05-0.23,0.14-0.48c0.1-0.25,0.21-0.52,0.35-0.83c0.14-0.3,0.29-0.6,0.45-0.89C129.47,41.86,129.62,41.64,129.76,41.49z"
		/>
	<path class="st1" d="M153.11,5.96c0.4,0,0.46,0.33,0.46,0.53c0,0.73-0.86,1.92-0.86,1.92l-10.93,2.05l-1.66-0.73L153.11,5.96z"/>
	<path class="st1" d="M143.29,18.87c-0.01,0-0.02,0-0.02-0.01c0-0.01-0.01-0.01-0.01-0.02c0-0.02,0.01-0.05,0.02-0.11
		c0.01-0.06,0.04-0.14,0.08-0.23c0.06-0.14,0.14-0.28,0.22-0.4c0.08-0.13,0.18-0.24,0.3-0.35c0.1-0.09,0.2-0.18,0.31-0.26
		c0.11-0.08,0.21-0.16,0.32-0.22c0.11-0.07,0.22-0.13,0.33-0.18c0.11-0.05,0.22-0.1,0.33-0.13l0-0.02
		c-0.01-0.03-0.02-0.07-0.03-0.11c-0.01-0.04-0.01-0.09-0.01-0.15c0-0.06,0.01-0.12,0.02-0.18c0.01-0.06,0.03-0.12,0.05-0.18
		c0.04-0.1,0.07-0.18,0.1-0.24c0.03-0.06,0.06-0.08,0.08-0.08c0.02,0,0.04,0.01,0.04,0.02c0,0.01,0.01,0.03,0.01,0.04
		c0,0.04-0.01,0.07-0.02,0.11c-0.01,0.04-0.02,0.07-0.02,0.12c0,0.07,0.02,0.12,0.07,0.16c0.05,0.04,0.11,0.07,0.18,0.1
		c0.07,0.03,0.15,0.05,0.23,0.07c0.08,0.02,0.16,0.05,0.23,0.07c0.07,0.03,0.13,0.06,0.18,0.1c0.05,0.04,0.07,0.09,0.07,0.16
		c0,0.06-0.01,0.12-0.03,0.19c-0.02,0.07-0.04,0.13-0.08,0.2c-0.03,0.07-0.07,0.13-0.12,0.19c-0.05,0.06-0.1,0.11-0.16,0.16
		c-0.09-0.03-0.19-0.06-0.29-0.07c-0.1-0.01-0.21-0.02-0.32-0.02c-0.08,0-0.16,0.01-0.25,0.03c-0.09,0.02-0.2,0.06-0.31,0.11
		c-0.11,0.05-0.24,0.12-0.38,0.2c-0.14,0.08-0.28,0.18-0.44,0.29c-0.13,0.1-0.25,0.2-0.36,0.3c-0.11,0.1-0.19,0.21-0.26,0.33
		c0,0.01-0.01,0.02-0.02,0.02S143.31,18.87,143.29,18.87z"/>
	<path class="st1" d="M144.08,35.58c-0.02,0-0.04,0-0.07,0.01c-0.03,0-0.07,0.01-0.12,0.01c-0.08,0-0.15-0.01-0.21-0.03
		c-0.06-0.02-0.11-0.05-0.14-0.09s-0.07-0.08-0.09-0.13c-0.02-0.05-0.03-0.1-0.03-0.15c0-0.02,0-0.05,0.01-0.08
		c0.01-0.03,0.02-0.07,0.03-0.12c0.01-0.04,0.03-0.09,0.04-0.14c0.01-0.05,0.03-0.1,0.04-0.15c0.02-0.09,0.05-0.15,0.1-0.21
		c0.05-0.05,0.12-0.08,0.2-0.08c0.06,0,0.11,0.01,0.16,0.04c0.05,0.03,0.09,0.07,0.13,0.13c0.04,0.06,0.08,0.12,0.11,0.2
		c0.03,0.08,0.06,0.17,0.09,0.27c0.03,0,0.06,0.01,0.09,0.01c0.03,0,0.06,0,0.09,0c0.08,0,0.15,0.02,0.19,0.06
		c0.05,0.04,0.07,0.09,0.09,0.16c-0.04,0.08-0.09,0.14-0.16,0.18c-0.07,0.04-0.16,0.06-0.25,0.08c0.01,0.05,0.01,0.11,0.01,0.17
		c0,0.06,0,0.11,0,0.16c0,0.1-0.01,0.2-0.02,0.3c-0.01,0.1-0.03,0.21-0.06,0.31c-0.03,0.1-0.06,0.2-0.11,0.3
		c-0.04,0.1-0.1,0.2-0.16,0.29c-0.1,0.15-0.21,0.28-0.32,0.39c-0.12,0.11-0.24,0.21-0.37,0.29c-0.13,0.08-0.26,0.14-0.4,0.18
		c-0.14,0.04-0.28,0.06-0.41,0.06c-0.13,0-0.26-0.03-0.37-0.08c-0.12-0.05-0.22-0.13-0.31-0.22c-0.09-0.1-0.16-0.22-0.21-0.36
		c-0.05-0.14-0.08-0.3-0.08-0.47c0-0.22,0.04-0.44,0.12-0.67c0.08-0.23,0.21-0.46,0.39-0.69c0.04-0.05,0.08-0.1,0.11-0.14
		c0.03-0.04,0.06-0.07,0.08-0.09c0.02-0.02,0.04-0.04,0.06-0.05c0.02-0.01,0.03-0.01,0.04-0.01c0.01,0,0.02,0,0.02,0
		c0.01,0,0.01,0.01,0.01,0.02c0,0.02-0.01,0.03-0.02,0.05c-0.12,0.14-0.22,0.27-0.3,0.39c-0.08,0.12-0.14,0.24-0.19,0.35
		c-0.05,0.11-0.08,0.22-0.1,0.32c-0.02,0.1-0.03,0.2-0.03,0.29c0,0.11,0.02,0.22,0.06,0.31c0.04,0.09,0.09,0.17,0.16,0.24
		c0.07,0.07,0.15,0.12,0.24,0.16c0.09,0.04,0.2,0.06,0.31,0.06c0.13,0,0.25-0.02,0.36-0.05c0.12-0.03,0.23-0.08,0.34-0.14
		c0.11-0.06,0.21-0.13,0.31-0.22c0.1-0.09,0.2-0.18,0.29-0.29c0.06-0.07,0.12-0.14,0.17-0.22c0.05-0.08,0.09-0.15,0.13-0.23
		c0.03-0.07,0.06-0.15,0.08-0.21c0.02-0.07,0.03-0.13,0.03-0.19c0-0.05,0-0.09-0.01-0.13c-0.01-0.04-0.02-0.07-0.04-0.1
		c-0.02-0.03-0.03-0.05-0.05-0.06C144.12,35.59,144.1,35.58,144.08,35.58z"/>
	<path class="st1" d="M128.56,36.69c0.27-0.84,0.57-1.59,0.91-2.25c0.34-0.66,0.75-1.22,1.21-1.68c0.23-0.22,0.47-0.4,0.71-0.52
		c0.24-0.13,0.48-0.19,0.72-0.19v0.17c0,0.17-0.02,0.32-0.06,0.45c-0.04,0.13-0.09,0.25-0.16,0.36c-0.07,0.11-0.14,0.22-0.23,0.31
		c-0.09,0.1-0.19,0.2-0.29,0.31c-0.11,0.11-0.22,0.22-0.34,0.35c-0.12,0.12-0.23,0.27-0.35,0.43c-0.32,0.44-0.63,0.98-0.95,1.62
		c-0.31,0.64-0.63,1.37-0.96,2.19c-0.1,0.23-0.17,0.39-0.22,0.49c-0.05,0.1-0.09,0.14-0.12,0.14c-0.06,0-0.1-0.12-0.11-0.35
		c-0.02-0.3-0.05-0.6-0.08-0.9c-0.03-0.3-0.08-0.6-0.14-0.9c-0.11-0.54-0.28-0.94-0.51-1.22c-0.23-0.27-0.53-0.41-0.9-0.41
		c-0.17,0-0.36,0.04-0.56,0.11c-0.2,0.07-0.42,0.17-0.65,0.3c-0.23,0.13-0.46,0.28-0.71,0.45c-0.25,0.17-0.49,0.37-0.74,0.57
		c-0.43,0.36-0.76,0.73-0.98,1.11c-0.01,0.02-0.02,0.04-0.04,0.05c-0.02,0.02-0.04,0.03-0.07,0.03c-0.02,0-0.04-0.01-0.05-0.03
		s-0.02-0.03-0.02-0.05c0-0.04,0.01-0.13,0.04-0.26c0.02-0.13,0.09-0.31,0.19-0.54c0.07-0.17,0.16-0.34,0.27-0.53
		c0.11-0.19,0.23-0.37,0.38-0.56c0.14-0.19,0.31-0.38,0.49-0.57c0.18-0.19,0.38-0.37,0.6-0.55c0.2-0.16,0.4-0.29,0.6-0.41
		c0.2-0.12,0.4-0.22,0.58-0.31c0.19-0.08,0.37-0.15,0.54-0.19c0.17-0.04,0.32-0.07,0.46-0.07c0.48,0,0.85,0.2,1.1,0.59
		c0.25,0.39,0.37,0.96,0.37,1.7c0,0.12,0,0.24,0,0.37s0,0.26-0.01,0.39H128.56z"/>
</g>
<g>
	<text transform="matrix(1 0 0 1 -656.3535 867.478)" class="st0" style="font-family:'Tajawal-Regular'; font-size:108.9348px;">
اــنــئاـمـع ةــقــث..ةدوــم</text>
</g>
<g>
	<path class="st1" d="M10.3,49.82c0,1.7-0.91,3.16-2.61,3.16c-1.61,0-2.52-1.47-2.52-3.16c0-0.47,0.1-1.04,0.3-1.52H4.78
		c-0.13,0.42-0.24,1-0.24,1.52c0,2.26,1.23,3.77,3.15,3.77c2.01,0,3.21-1.51,3.21-3.77v-3.05h-0.6V49.82z"/>
	<rect x="7.4" y="47.9" class="st1" width="0.69" height="0.75"/>
	<path class="st1" d="M43.73,49.39c0-1.12,0.56-2.07,1.48-2.07c0.82,0,1.36,0.36,1.4,1.12h0.6c-0.04-1.06-0.88-1.67-1.9-1.67
		c-1.48,0-2.23,1.29-2.23,2.63v1.72h-1h-0.14h-1.77h-0.09h-1.83h-0.09h-1.83h-0.09h-1.83h-0.09h-1.83H32.4h-1.83h-0.09h-1.83h-0.09
		h-1.83h-0.09h-1.83h-0.09H22.9h-0.09h-1.83H20.9h-1.83h-0.09h-1.83h-0.09h-0.21c-1.01,0-1.49-0.72-1.5-1.63v-4.96h-0.6v5.23
		c0,0.64-0.28,1.07-0.74,1.26l-1.54-6.31h-0.6l1.58,6.41h-1.09l-0.3,0.56h1.52c0.99,0,1.43-0.54,1.62-1.09
		c0.22,0.54,0.89,1.09,1.74,1.09h0.11h0.09h1.83h0.09h1.83h0.09h1.83h0.09h1.83h0.09h1.83h0.09h1.83h0.09h1.83h0.09h1.83h0.09h1.83
		h0.09h1.83h0.09h1.83h0.09h1.83h0.09h1.77h0.14h5.39v-0.56h-3.74V49.39z"/>
	<path class="st1" d="M51.33,49.76c0,0.64-0.28,1.07-0.74,1.26l-1.54-6.31h-0.6l1.58,6.41h-1.09l-0.3,0.56h1.52
		c1.63,0,1.76-1.43,1.76-2.01v-5.15h-0.6V49.76z"/>
	<path class="st1" d="M49.56,53.43h-0.6v-0.37c0-0.26,0.09-0.52,0.34-0.52c0.22,0,0.3,0.17,0.31,0.35h0.37
		c-0.02-0.36-0.3-0.68-0.67-0.68c-0.5,0-0.71,0.41-0.71,0.85v0.37h-0.28l-0.13,0.35h1.32c0.19,0,0.37-0.03,0.53-0.24l-0.25-0.23
		C49.73,53.43,49.6,53.43,49.56,53.43z"/>
	<rect x="53.51" y="44.53" class="st1" width="0.6" height="7.15"/>
	<path class="st1" d="M55.5,49.3c0,1.32,1.04,2.38,2.45,2.38c0.66,0,1.3,0,1.3,0c-0.01,0.85-0.6,1.37-1.49,1.33
		c-0.28-0.01-0.64-0.03-1.09-0.29c0.03,0.28,0.07,0.55,0.07,0.55c0.12,0.08,0.64,0.26,1.09,0.3c1.12,0.07,2.02-0.61,2.02-1.88v-4.93
		c0,0-1.13,0-1.9,0C56.43,46.76,55.5,47.99,55.5,49.3z M59.24,51.12c0,0-0.17,0-1.3,0c-1.13,0-1.79-0.97-1.79-1.92
		c0-0.84,0.65-1.88,1.79-1.88c0.47,0,1.3,0,1.3,0V51.12z"/>
	<path class="st1" d="M84.01,49.76c0,0.87-0.5,1.36-1.31,1.36h-0.9h-0.04h-1.87h-0.09h-1.83h-0.09h-1.83h-0.09h-1.83h-0.09h-1.83
		h-0.09h-1.83h-0.09h-1.83h-0.09h-1.83h-0.09h-0.44c-0.8,0-1.3-0.48-1.3-1.36v-5.23h-0.6v5.15c0,0.57,0.13,2.01,1.75,2.01h0.58h0.09
		h1.83h0.09h1.83h0.09h1.83h0.09h1.83h0.09h1.83h0.09h1.83h0.09h1.83h0.09h1.87h0.04h1.06c1.62,0,1.75-1.43,1.75-2.01v-2.91h-0.6
		V49.76z"/>
	<rect x="83.27" y="52.85" class="st1" width="0.69" height="0.75"/>
	<rect x="81.76" y="52.85" class="st1" width="0.69" height="0.75"/>
	<path class="st1" d="M94.11,49.39c0-1.12,0.56-2.07,1.48-2.07c0.82,0,1.36,0.36,1.4,1.12h0.6c-0.04-1.06-0.88-1.67-1.9-1.67
		c-1.48,0-2.23,1.29-2.23,2.63v1.72h-1h-0.14h-1.77h-0.09h-1.83h-0.09h-0.44c-0.8,0-1.3-0.48-1.3-1.36v-5.23h-0.6v5.15
		c0,0.57,0.13,2.01,1.75,2.01h0.58h0.09h1.83h0.09h1.77h0.14h5.39v-0.56h-3.74V49.39z"/>
	<path class="st1" d="M115.54,44.53v5.23c0,0.87-0.5,1.36-1.31,1.36h-0.85h-0.1h-0.68c-1.01,0-1.5-0.72-1.5-1.63v-4.96h-0.6v5.23
		c0,0.87-0.5,1.36-1.31,1.36h-0.82h-0.19h-1.73h-0.09h-1.82h-0.1h-1.47v-2.72c0-1.14-0.66-1.64-1.76-1.64
		c-0.95,0-1.71,0.39-1.86,1.41h0.58c0.09-0.67,0.65-0.86,1.28-0.86c0.69,0,1.08,0.25,1.15,1.07v2.74h-3.14v0.56h5.22h0.1h1.82h0.09
		h1.73h0.19h0.97c0.99,0,1.42-0.54,1.61-1.09c0.22,0.54,0.89,1.09,1.74,1.09h0.58h0.1h1c1.62,0,1.75-1.43,1.75-2.01v-5.15H115.54z"
		/>
</g>
</svg>
