<?xml version="1.0" encoding="utf-8"?>
<!-- Generator: Adobe Illustrator 27.0.1, SVG Export Plug-In . SVG Version: 6.00 Build 0)  -->
<svg version="1.1" id="Layer_5" xmlns="http://www.w3.org/2000/svg" xmlns:xlink="http://www.w3.org/1999/xlink" x="0px" y="0px"
	 viewBox="0 0 200 200" style="enable-background:new 0 0 200 200;" xml:space="preserve">
<style type="text/css">
	.st0{fill:#083758;}
	.st1{fill:#9C8760;}
</style>
<g>
	<g>
		<path class="st0" d="M153.75,182.68c-0.57-0.73-1.24-1.4-1.68-2.19c-2.46-4.36-4.87-8.74-7.27-13.12c-0.4-0.73-0.84-1.1-1.77-1.27
			c-1.1-0.19-2.31-0.72-3.11-1.49c-1.64-1.58-3.73-2.88-4.18-5.43c-0.03-0.19-0.73-0.38-1.12-0.38c-2.53-0.01-5.06,0.04-7.58,0.05
			c-1.76,0.01-3.24-0.66-4.62-1.75c-0.59-0.47-1.45-0.84-2.18-0.84c-19.83-0.04-39.67-0.04-59.5-0.04
			c-10.76,0-21.52-0.09-32.28,0.05c-3.97,0.05-6.68-1.34-8.02-5.13c0-5.85,0-11.7,0-17.55c0.73-1.01,1.58-1.84,2.96-1.33
			c1.36,0.5,1.52,1.65,1.51,2.92c-0.03,4.66-0.02,9.32-0.01,13.98c0,1.94,0.65,2.6,2.57,2.6c30.3,0.01,60.59,0,90.89,0
			c0.38,0,0.76-0.05,1.3-0.09c-0.22-0.62-0.4-1.12-0.59-1.62c-2.83-7.45-5.68-14.89-8.48-22.35c-1.38-3.69,0.58-7.17,4.33-7.64
			c0.89-0.11,1.9,0.07,2.75,0.39c8.99,3.37,17.97,6.77,26.93,10.21c2.94,1.13,4.37,3.36,4.37,6.58c0,2.43-0.07,4.86-0.05,7.29
			c0,0.4,0.26,1.09,0.53,1.16c2.91,0.8,4.36,3.28,6.27,5.24c0.38,0.39,0.98,0.79,1.49,0.8c2.77,0.08,5.55,0.04,8.33,0.04
			c2.21-0.01,2.79-0.6,2.8-2.83c0-20.32,0-40.65,0-60.97c0-2.3,0.68-3.37,2.17-3.41c1.54-0.04,2.29,1.08,2.29,3.45
			c0,20.27,0,40.55,0,60.82c0,4.9-2.5,7.4-7.4,7.41c-1.47,0-2.94,0-4.86,0c0.76,0.48,1.15,0.75,1.55,0.98
			c3.03,1.68,6.07,3.35,9.09,5.04c1.53,0.86,2,2.08,1.32,3.28c-0.7,1.22-1.94,1.47-3.49,0.62c-4.68-2.58-9.38-5.15-14.02-7.8
			c-0.97-0.55-1.51-0.4-2.23,0.36c-1.6,1.68-3.3,3.27-4.97,4.9c2.85,5.15,5.61,10.12,8.36,15.1c1.06,1.92,0.86,2.72-0.91,3.99
			C154.74,182.68,154.25,182.68,153.75,182.68z M119.54,125.9c-0.06,0.07-0.13,0.14-0.19,0.21c2.52,2.52,5.11,4.98,7.55,7.58
			c1.17,1.25,2.16,1.84,4.03,1.3c2.77-0.8,5.94,0.99,7.3,3.64c1.39,2.71,0.85,6.09-1.32,8.23c-2.11,2.09-5.46,2.61-8.12,1.27
			c-2.68-1.36-4.52-4.5-3.68-7.27c0.6-1.98-0.14-2.98-1.39-4.14c-1.81-1.69-3.53-3.48-5.27-5.25c-0.74-0.75-1.43-1.54-2.15-2.31
			c-0.1,0.08-0.2,0.16-0.3,0.24c3.01,7.9,5.98,15.81,9.09,23.66c0.24,0.62,1.36,1.24,2.09,1.26c3.37,0.09,6.74-0.01,10.11-0.11
			c0.53-0.02,1.16-0.3,1.54-0.66c1.62-1.53,3.22-3.09,4.72-4.74c0.45-0.49,0.77-1.27,0.8-1.93c0.12-2.77,0.12-5.55,0.15-8.32
			c0.04-3.19,0.03-3.19-2.91-4.3C134.23,131.48,126.89,128.69,119.54,125.9z M148.87,150.38c-2.85,2.85-5.62,5.63-8.31,8.33
			c0.84,0.9,1.8,1.93,2.65,2.84c2.84-2.85,5.61-5.63,8.35-8.36C150.69,152.28,149.71,151.26,148.87,150.38z M131.89,144.39
			c1.44,0.03,2.55-1.01,2.6-2.43c0.05-1.47-1.1-2.68-2.54-2.67c-1.36,0.01-2.55,1.18-2.57,2.54
			C129.36,143.2,130.49,144.35,131.89,144.39z"/>
		<path class="st0" d="M20.43,35.41c1.36-3.79,4.09-5.17,8.05-5.11c9.52,0.15,19.04,0.05,28.57,0.05c0.5,0,1.01-0.05,1.48,0.05
			c1.15,0.24,1.84,0.96,1.85,2.17c0,1.21-0.68,1.94-1.83,2.19c-0.48,0.1-0.99,0.05-1.48,0.05c-9.67,0-19.34,0-29.01,0
			c-2.69,0-3.15,0.47-3.15,3.22c0,3.8,0,7.61,0,11.5c47.84,0,95.53,0,143.44,0c0-0.99,0-1.96,0-2.93c0-2.98,0-5.95,0-8.93
			c0-2.29-0.59-2.87-2.92-2.87c-27.62,0-55.25,0-82.87,0c-4.56,0-9.13,0.01-13.69-0.01c-1.49-0.01-2.46-0.93-2.47-2.22
			c0-1.28,0.97-2.17,2.46-2.23c0.15-0.01,0.3,0,0.45,0c32.24,0,64.47,0,96.71,0c4.09,0,6.79,2.72,6.79,6.82
			c0.01,12.84,0.01,25.68,0,38.53c0,1.87-0.81,2.88-2.26,2.86c-1.43-0.02-2.2-1.02-2.2-2.92c-0.01-6.59,0-13.19,0-19.78
			c0-0.54,0-1.07,0-1.69c-47.82,0-95.51,0-143.44,0c0,0.54,0,1.11,0,1.68c0,22.06,0,44.13,0,66.19c0,0.35-0.02,0.7,0,1.04
			c0.07,1.27-0.14,2.42-1.5,2.92c-1.39,0.51-2.23-0.33-2.96-1.34C20.43,94.91,20.43,65.16,20.43,35.41z"/>
		<path class="st0" d="M60.57,89.73c2.48,2.27,3.4,4.99,2.4,8.21c-0.91,2.93-3.6,4.94-6.67,5.02c-2.23,0.06-4.46,0.06-6.68,0.04
			c-1.57-0.02-2.41-0.82-2.41-2.37c-0.03-6.29-0.02-12.57,0-18.86c0.01-1.57,0.81-2.35,2.4-2.39c1.78-0.04,3.57-0.04,5.35,0
			c5.14,0.12,8.12,4.98,5.95,9.67C60.79,89.26,60.69,89.48,60.57,89.73z M51.78,92.72c0,2,0,3.88,0,5.8c1.5,0,2.88,0.05,4.26-0.01
			c1.62-0.07,2.72-1.16,2.82-2.66c0.11-1.61-0.85-2.93-2.51-3.09C54.85,92.6,53.32,92.72,51.78,92.72z M51.74,83.86
			c0,1.54,0,2.85,0,4.28c1.21,0,2.34,0.07,3.46-0.02c1.29-0.1,1.96-0.93,1.93-2.19c-0.03-1.19-0.7-1.97-1.92-2.05
			C54.09,83.79,52.96,83.86,51.74,83.86z"/>
		<path class="st0" d="M111.79,88.8c0,3.85,0,7.27,0,10.68c0,0.45,0.02,0.89-0.01,1.34c-0.11,1.31-0.97,2.16-2.18,2.18
			c-1.28,0.02-2.24-0.85-2.25-2.25c-0.03-6.35-0.02-12.69-0.01-19.04c0-1.12,0.55-1.92,1.63-2.22c1.15-0.32,1.99,0.21,2.65,1.16
			c2.64,3.78,5.29,7.55,7.95,11.32c0.3,0.43,0.63,0.83,1.22,1.61c0-2.78,0-5.13,0-7.48c0-1.44-0.04-2.88,0.02-4.31
			c0.06-1.53,0.94-2.41,2.27-2.39c1.35,0.02,2.16,0.88,2.16,2.47c0.02,6.2,0,12.4,0.02,18.59c0,1.16-0.37,2.08-1.52,2.44
			c-1.2,0.37-2.08-0.17-2.78-1.17c-2.77-3.99-5.57-7.96-8.37-11.93C112.42,89.56,112.23,89.34,111.79,88.8z"/>
		<path class="st0" d="M128.4,91.16c0-2.97-0.01-5.94,0-8.91c0.01-2.17,0.68-2.86,2.8-2.88c1.53-0.01,3.07-0.02,4.6,0
			c4.86,0.06,8.27,2.61,9.6,7.3c1.06,3.75,0.95,7.46-0.87,10.97c-1.79,3.44-4.63,5.32-8.59,5.34c-1.68,0.01-3.37,0.04-5.05,0.02
			c-1.65-0.02-2.44-0.81-2.45-2.48c-0.03-3.12-0.01-6.24-0.01-9.36C128.42,91.16,128.41,91.16,128.4,91.16z M132.97,83.89
			c0,4.98,0,9.75,0,14.58c2.89,0.14,5.79,0.49,7.42-2.52c1.78-3.29,1.7-6.7-0.17-9.9C138.56,83.2,135.68,83.84,132.97,83.89z"/>
		<path class="st0" d="M71,94.94c0,2.09,0.01,3.71,0,5.33c-0.02,1.74-0.84,2.72-2.25,2.72c-1.42,0-2.2-0.95-2.21-2.73
			c-0.01-6.04-0.01-12.08,0-18.12c0-2.03,0.73-2.75,2.77-2.77c1.53-0.02,3.07-0.03,4.61,0.01c3.82,0.09,6.68,2.47,7.36,6.07
			c0.61,3.26-1.27,6.4-4.71,7.87c-0.18,0.08-0.37,0.14-0.75,0.29c1.21,1.39,2.37,2.71,3.52,4.03c0.42,0.48,0.87,0.95,1.28,1.45
			c1.03,1.27,1.01,2.53-0.05,3.41c-0.96,0.81-2.28,0.65-3.28-0.46c-1.56-1.73-3.08-3.49-4.62-5.23C72.21,96.3,71.76,95.79,71,94.94z
			 M71.1,83.88c0,1.84,0,3.59,0,5.38c1.18,0,2.26,0.09,3.33-0.02c1.41-0.15,2.51-1.42,2.49-2.7c-0.02-1.29-1.12-2.51-2.54-2.64
			C73.31,83.8,72.23,83.88,71.1,83.88z"/>
		<path class="st0" d="M104.11,100.39c-0.02,1.48-0.56,2.26-1.65,2.54c-1.07,0.27-1.99-0.1-2.51-1.1c-0.4-0.79-0.72-1.63-0.99-2.48
			c-0.25-0.77-0.67-1.08-1.52-1.05c-2.08,0.06-4.16,0.05-6.24,0c-0.82-0.02-1.27,0.23-1.51,1.04c-0.24,0.8-0.57,1.58-0.94,2.34
			c-0.58,1.17-1.74,1.62-2.86,1.19c-1.09-0.42-1.69-1.61-1.23-2.81c2.5-6.45,5.02-12.9,7.65-19.3c0.26-0.63,1.31-1.17,2.07-1.31
			c1.12-0.21,1.76,0.68,2.16,1.67c2.07,5.24,4.14,10.48,6.2,15.73C103.24,98.12,103.73,99.41,104.11,100.39z M91.92,93.73
			c1.72,0,3.17,0,4.78,0c-0.8-2.02-1.53-3.88-2.39-6.06C93.45,89.84,92.72,91.71,91.92,93.73z"/>
		<path class="st0" d="M38.31,123.18c-1.34,0-2.67,0.02-4.01-0.01c-2.49-0.06-4.15-1.56-4.24-4.03c-0.1-2.77-0.1-5.55-0.01-8.32
			c0.08-2.57,1.69-4.05,4.31-4.09c0.96-0.02,1.71-0.05,2.35-1.06c0.72-1.14,2.55-1.03,3.31,0.14c0.49,0.75,1.01,0.91,1.81,0.92
			c3.24,0.03,4.64,1.49,4.78,4.73c0.02,0.57,0.38,1.25,0.81,1.65c1.17,1.09,1.19,2.52,0.03,3.61c-0.43,0.4-0.81,1.07-0.84,1.64
			c-0.15,3.37-1.59,4.81-5.02,4.82C40.49,123.18,39.4,123.18,38.31,123.18z M34.61,111.26c0,2.59,0,4.99,0,7.37c2.53,0,4.94,0,7.4,0
			c0-2.49,0-4.89,0-7.37C39.5,111.26,37.09,111.26,34.61,111.26z"/>
		<path class="st0" d="M154.82,123.18c-1.24,0-2.48,0.02-3.71,0c-2.73-0.04-4.34-1.6-4.43-4.32c-0.03-0.93,0.02-1.72-1.02-2.37
			c-1.17-0.73-0.93-2.35,0.12-3.35c0.42-0.41,0.83-1.06,0.85-1.62c0.14-3.34,1.5-4.69,4.87-4.83c0.53-0.02,1.19-0.34,1.54-0.75
			c1.15-1.32,2.65-1.32,3.79-0.01c0.35,0.4,1.01,0.73,1.54,0.75c3.43,0.14,4.83,1.53,4.84,4.97c0.01,2.28,0.02,4.56,0,6.83
			c-0.03,3.11-1.59,4.67-4.66,4.69C157.3,123.18,156.06,123.18,154.82,123.18z M158.65,118.64c0-2.47,0-4.87,0-7.35
			c-2.51,0-4.95,0-7.42,0c0,2.52,0,4.92,0,7.35C153.74,118.64,156.15,118.64,158.65,118.64z"/>
		<path class="st0" d="M38.34,59.21c1.24,0,2.48-0.01,3.71,0c2.82,0.02,4.43,1.58,4.49,4.39c0.02,0.92,0.06,1.62,0.98,2.23
			c1.16,0.77,1.11,2.53-0.07,3.3c-0.83,0.54-0.89,1.14-0.9,1.96c-0.04,3.02-1.56,4.52-4.61,4.57c-0.83,0.01-1.42,0.09-1.96,0.92
			c-0.78,1.22-2.6,1.2-3.41-0.01c-0.5-0.75-1.01-0.9-1.81-0.91c-3.24-0.04-4.72-1.53-4.74-4.73c-0.02-2.38-0.03-4.75,0-7.13
			c0.04-3.01,1.61-4.57,4.6-4.59C35.87,59.2,37.11,59.21,38.34,59.21z M34.61,63.74c0,2.57,0,4.96,0,7.37c2.53,0,4.93,0,7.39,0
			c0-2.51,0-4.9,0-7.37C39.5,63.74,37.09,63.74,34.61,63.74z"/>
		<path class="st0" d="M163.2,67.4c0,1.29,0.03,2.57-0.01,3.86c-0.08,2.78-1.59,4.32-4.34,4.39c-0.96,0.02-1.71,0.07-2.35,1.06
			c-0.73,1.13-2.39,0.9-3.36-0.11c-0.41-0.43-1.06-0.86-1.61-0.89c-3.45-0.17-4.75-1.47-4.9-4.96c-0.02-0.49-0.33-1.09-0.7-1.41
			c-1.35-1.17-1.34-2.61-0.02-3.78c0.4-0.35,0.69-1.02,0.72-1.55c0.13-3.31,1.58-4.79,4.88-4.79c2.38,0,4.75-0.01,7.13,0
			c2.9,0.01,4.49,1.57,4.56,4.48C163.23,64.93,163.2,66.17,163.2,67.4z M158.62,71.13c0-2.59,0-4.99,0-7.37c-2.53,0-4.94,0-7.4,0
			c0,2.49,0,4.89,0,7.37C153.72,71.13,156.13,71.13,158.62,71.13z"/>
		<path class="st0" d="M57.36,112.74c0.64,0,1.29-0.04,1.93,0.01c1.29,0.09,2,0.87,2.08,2.09c0.07,1.17-0.59,2.09-1.75,2.23
			c-1.46,0.17-2.97,0.18-4.42,0.01c-1.22-0.14-1.88-1.06-1.76-2.34c0.12-1.27,0.89-1.93,2.16-1.99
			C56.18,112.71,56.77,112.73,57.36,112.74C57.36,112.74,57.36,112.74,57.36,112.74z"/>
		<path class="st0" d="M135.79,117.13c-0.69,0-1.4,0.1-2.07-0.02c-1.22-0.23-1.94-1.05-1.86-2.3c0.08-1.22,0.81-2.01,2.1-2.06
			c1.23-0.05,2.47-0.05,3.7,0c1.26,0.05,2.01,0.75,2.13,2.01c0.12,1.22-0.66,2.2-1.94,2.37c-0.68,0.09-1.38,0.02-2.07,0.02
			C135.79,117.14,135.79,117.14,135.79,117.13z"/>
		<path class="st0" d="M57.37,69.64c-0.64,0-1.29,0.05-1.92-0.01c-1.18-0.11-1.91-0.79-2.01-1.99c-0.11-1.28,0.55-2.19,1.76-2.34
			c1.41-0.18,2.87-0.17,4.28-0.03c1.23,0.12,1.95,1.02,1.89,2.26c-0.06,1.23-0.79,2-2.07,2.1C58.65,69.68,58.01,69.64,57.37,69.64z"
			/>
		<path class="st0" d="M135.83,69.64c-0.64,0-1.29,0.05-1.92-0.01c-1.28-0.11-2-0.9-2.05-2.12c-0.05-1.25,0.69-2.12,1.92-2.24
			c1.37-0.14,2.77-0.15,4.14,0c1.21,0.13,1.94,0.96,1.88,2.26c-0.06,1.27-0.79,1.99-2.05,2.11
			C137.12,69.69,136.47,69.64,135.83,69.64z"/>
		<path class="st0" d="M122.76,69.64c-0.64,0-1.29,0.04-1.92-0.01c-1.28-0.11-2-0.88-2.05-2.11c-0.05-1.25,0.67-2.12,1.9-2.25
			c1.37-0.14,2.77-0.15,4.14,0c1.21,0.13,1.94,0.95,1.89,2.25c-0.05,1.27-0.78,1.99-2.03,2.12
			C124.05,69.69,123.41,69.64,122.76,69.64z"/>
		<path class="st0" d="M70.46,69.64c-0.64,0-1.29,0.05-1.92-0.01c-1.26-0.12-1.98-0.84-2.03-2.11c-0.05-1.29,0.68-2.12,1.89-2.25
			c1.37-0.15,2.77-0.14,4.14,0c1.23,0.13,1.95,1,1.9,2.25c-0.05,1.24-0.77,2.01-2.05,2.11C71.75,69.68,71.1,69.64,70.46,69.64z"/>
		<path class="st0" d="M70.36,117.15c-0.64,0-1.29,0.07-1.92-0.02c-1.27-0.18-2.05-1.16-1.93-2.38c0.12-1.27,0.88-1.96,2.14-2.01
			c1.18-0.05,2.37-0.05,3.55,0c1.33,0.05,2.19,0.87,2.26,2.07c0.07,1.22-0.83,2.21-2.17,2.35c-0.64,0.06-1.28,0.01-1.92,0.01
			C70.36,117.16,70.36,117.16,70.36,117.15z"/>
		<path class="st0" d="M122.71,112.74c0.64,0,1.29-0.04,1.92,0.01c1.26,0.09,2,0.79,2.08,2.06c0.08,1.29-0.63,2.15-1.84,2.28
			c-1.41,0.16-2.87,0.16-4.28-0.01c-1.22-0.15-1.91-1.07-1.8-2.32c0.1-1.23,0.86-1.96,2.14-2.02
			C121.53,112.71,122.12,112.74,122.71,112.74z"/>
		<path class="st0" d="M109.64,117.13c-0.69,0-1.4,0.1-2.07-0.02c-1.21-0.23-1.93-1.03-1.85-2.3c0.08-1.25,0.81-2.01,2.09-2.06
			c1.23-0.05,2.47-0.05,3.7-0.01c1.26,0.05,2.01,0.74,2.13,2.01c0.12,1.21-0.67,2.2-1.93,2.38c-0.68,0.09-1.38,0.02-2.07,0.02
			C109.64,117.14,109.64,117.14,109.64,117.13z"/>
		<path class="st0" d="M83.44,69.63c-0.64,0-1.29,0.06-1.92-0.01c-1.18-0.15-1.87-0.86-1.94-2.05c-0.07-1.21,0.56-2.11,1.7-2.25
			c1.5-0.18,3.06-0.17,4.56,0.02c1.15,0.14,1.75,1.09,1.66,2.28c-0.1,1.18-0.8,1.9-1.99,2.01C84.83,69.69,84.13,69.64,83.44,69.63
			C83.44,69.63,83.44,69.63,83.44,69.63z"/>
		<path class="st0" d="M83.52,112.73c0.59,0,1.19-0.03,1.78,0.01c1.33,0.07,2.18,0.89,2.23,2.1c0.05,1.18-0.77,2.2-2.04,2.3
			c-1.32,0.1-2.67,0.11-3.99-0.02c-1.26-0.12-2.04-1.17-1.91-2.39c0.14-1.27,0.89-1.93,2.16-1.99
			C82.33,112.71,82.92,112.73,83.52,112.73z"/>
		<path class="st0" d="M109.75,69.64c-0.64,0-1.29,0.04-1.92-0.01c-1.27-0.09-1.99-0.81-2.1-2.06c-0.11-1.18,0.74-2.24,1.99-2.33
			c1.32-0.1,2.67-0.1,3.99,0.01c1.26,0.1,2.06,1.14,1.95,2.36c-0.12,1.27-0.87,1.95-2.12,2.03
			C110.93,69.68,110.34,69.64,109.75,69.64z"/>
		<path class="st0" d="M96.62,69.64c-0.64,0-1.29,0.05-1.92-0.01c-1.26-0.12-1.99-0.85-2.04-2.11c-0.05-1.28,0.67-2.12,1.89-2.25
			c1.36-0.15,2.77-0.15,4.13,0c1.22,0.13,1.94,0.97,1.9,2.24c-0.05,1.26-0.77,2-2.03,2.12C97.91,69.69,97.26,69.64,96.62,69.64z"/>
		<path class="st0" d="M96.61,112.74c0.64,0,1.29-0.04,1.92,0.01c1.2,0.09,1.91,0.77,2.03,1.96c0.12,1.27-0.52,2.21-1.74,2.36
			c-1.45,0.18-2.96,0.18-4.42,0c-1.22-0.15-1.87-1.08-1.75-2.35c0.11-1.19,0.83-1.87,2.02-1.97
			C95.32,112.7,95.97,112.74,96.61,112.74z"/>
		<path class="st0" d="M157.19,85.34c-0.04,0.69-0.01,1.39-0.13,2.06c-0.2,1.13-1.01,1.71-2.09,1.73c-1.09,0.02-2.01-0.54-2.13-1.66
			c-0.15-1.41-0.15-2.86,0-4.26c0.12-1.11,1.01-1.68,2.12-1.66c1.11,0.02,1.87,0.62,2.09,1.73
			C157.18,83.94,157.15,84.65,157.19,85.34z"/>
		<path class="st0" d="M36.11,96.99c0-0.59-0.05-1.19,0.01-1.77c0.14-1.27,0.95-1.97,2.18-1.98c1.15,0,2.02,0.65,2.13,1.85
			c0.12,1.27,0.13,2.57,0.01,3.84c-0.12,1.25-0.98,1.94-2.23,1.9c-1.17-0.04-1.93-0.72-2.08-1.92c-0.08-0.63-0.01-1.28-0.01-1.92
			C36.12,96.99,36.12,96.99,36.11,96.99z"/>
		<path class="st0" d="M157.19,97.11c-0.03,0.64-0.01,1.29-0.12,1.92c-0.18,1.12-0.93,1.75-2.03,1.8c-1.17,0.05-2.07-0.55-2.22-1.73
			c-0.16-1.26-0.14-2.56-0.07-3.83c0.08-1.26,0.91-1.95,2.14-2.04c1.15-0.09,2.09,0.84,2.22,2.11c0.06,0.59,0.01,1.18,0.01,1.77
			C157.15,97.11,157.17,97.11,157.19,97.11z"/>
		<path class="st0" d="M36.04,85.32c0.03-0.64,0-1.29,0.1-1.92c0.19-1.19,0.95-1.84,2.13-1.85c1.18-0.01,2.02,0.64,2.15,1.82
			c0.13,1.27,0.13,2.56,0.02,3.83c-0.1,1.27-0.99,1.96-2.21,1.93c-1.22-0.03-2.01-0.76-2.12-2.04c-0.05-0.59-0.01-1.18-0.01-1.77
			C36.08,85.32,36.06,85.32,36.04,85.32z"/>
		<path class="st0" d="M56.14,42.26c-0.03,1.25-1.07,2.19-2.35,2.12c-1.18-0.07-2.13-1.08-2.09-2.25c0.04-1.16,1.06-2.16,2.22-2.16
			C55.14,39.96,56.17,41.03,56.14,42.26z"/>
		<path class="st0" d="M43.77,39.97c1.21,0.04,2.24,1.17,2.16,2.37c-0.09,1.19-1.08,2.08-2.29,2.05c-1.28-0.03-2.19-1.04-2.12-2.33
			C41.59,40.86,42.6,39.93,43.77,39.97z"/>
		<path class="st0" d="M35.67,42.18c0.01,1.29-0.95,2.24-2.24,2.21c-1.2-0.03-2.15-0.98-2.16-2.17c-0.01-1.22,1.06-2.27,2.27-2.24
			C34.72,40,35.66,40.98,35.67,42.18z"/>
	</g>
</g>
</svg>
