<?xml version="1.0" encoding="utf-8"?>
<!-- Generator: Adobe Illustrator 27.0.1, SVG Export Plug-In . SVG Version: 6.00 Build 0)  -->
<svg version="1.1" id="Layer_5" xmlns="http://www.w3.org/2000/svg" xmlns:xlink="http://www.w3.org/1999/xlink" x="0px" y="0px"
	 viewBox="0 0 200 200" style="enable-background:new 0 0 200 200;" xml:space="preserve">
<style type="text/css">
	.st0{fill:#083758;}
	.st1{fill:#9C8760;}
</style>
<g>
	<g>
		<path class="st0" d="M75.57,130.83c0.81,1.77,1.5,3.36,2.28,4.91c0.2,0.4,0.63,0.74,1.04,0.97c1.03,0.6,2.1,1.11,3.15,1.67
			c1.84,0.98,2.07,1.59,1.37,3.6c-0.29,0.83-0.59,1.66-0.93,2.62c0.96,0.33,1.8,0.58,2.62,0.89c1.51,0.58,1.94,1.5,1.5,3.05
			c-0.04,0.14-0.07,0.29-0.13,0.43c-0.96,2.08-1.12,4.05-0.38,6.38c1.19,3.76-0.12,7.02-3.3,9.44c-0.79,0.6-1.62,1.14-2.4,1.75
			c-2.77,2.16-6.67,0.94-8.03-2.2c-3.05-7.04-6.24-14.03-9.38-21.03c-1.03-2.3-2.06-4.59-3.14-6.99c-0.78,0.34-1.49,0.57-2.13,0.92
			c-5.31,2.9-10.53,2.11-15.64-0.46c-11.23-5.65-16.04-20.92-9.98-31.55c1.53-2.68,3.63-4.8,6.34-6.32
			c17.67-9.88,33.87-21.89,49.67-34.47c1.86-1.48,3.62-3.08,5.45-4.6c2.88-2.41,6.18-2.73,9.67-1.81c3.94,1.04,7.22,3.26,10.12,6.02
			c8.7,8.27,13.96,18.53,16.89,30.04c1.49,5.87,2.07,11.83,0.58,17.81c-0.98,3.94-2.78,7.43-6.68,9.14
			c-1.67,0.73-3.63,0.87-5.48,1.12c-14.05,1.9-27.99,4.37-41.66,8.19C76.55,130.48,76.14,130.64,75.57,130.83z M109.89,118.32
			c-14.72-12.79-22.1-28.8-21.83-48.39c-0.5,0.38-1.01,0.75-1.51,1.14c-14.75,11.58-29.9,22.58-46.39,31.61
			c-2.9,1.59-4.79,3.92-5.84,7.01c-2.55,7.52,0.94,17.46,7.8,21.88c4.16,2.68,8.55,3.56,13.22,1.17c1.14-0.59,2.35-1.04,3.53-1.55
			c2.48-1.07,3.28-0.76,4.39,1.72c4,8.95,7.97,17.92,12,26.85c1.68,3.71,0.94,3.79,4.6,1.04c1.74-1.31,2.29-3.1,1.52-5
			c-0.92-2.28-1.94-4.51-0.26-6.93c-0.81-0.3-1.41-0.54-2.01-0.74c-2.51-0.83-2.85-1.58-1.88-4.09c0.34-0.86,0.66-1.72,1.01-2.64
			c-1.01-0.51-1.94-0.88-2.76-1.42c-0.58-0.38-1.2-0.9-1.49-1.51c-1.26-2.63-2.44-5.31-3.6-7.99c-0.79-1.81-0.26-3.02,1.66-3.5
			c7.91-2.02,15.82-4.06,23.77-5.92C100.5,119.95,105.25,119.2,109.89,118.32z"/>
		<path class="st0" d="M53.66,22.59c9.66,0.57,17.07,4.97,21.45,14.09c0.31,0.64,0.76,1.28,1.3,1.75c3.32,2.89,6.07,6.25,8.51,9.89
			c0.66,0.98,0.89,1.98,0.4,3.08c-0.5,1.13-1.53,1.09-2.53,1.14c-1.83,0.09-3.67,0.15-5.49,0.36c-0.48,0.06-1.15,0.54-1.32,0.99
			c-3.47,9.6-10.35,14.84-20.39,16.04c-12.07,1.44-24.29-8.26-25.69-20.35c-1.52-13.12,6.9-24.41,19.9-26.66
			C50.98,22.72,52.18,22.71,53.66,22.59z M53.03,43.27c3.32,0,6.65,0.02,9.97-0.01c1.55-0.02,2.56-0.96,2.6-2.29
			c0.04-1.37-0.89-2.34-2.5-2.35c-6.74-0.03-13.49-0.02-20.23,0c-1.06,0-1.93,0.41-2.29,1.54c-0.55,1.72,0.48,3.08,2.48,3.1
			C46.38,43.3,49.7,43.27,53.03,43.27z M52.99,49.51c-3.27,0-6.53-0.01-9.8,0c-1.84,0.01-2.8,0.85-2.76,2.34
			c0.04,1.43,0.97,2.22,2.74,2.22c6.53,0.01,13.06,0.01,19.6,0c1.87,0,2.83-0.79,2.84-2.27c0.01-1.48-0.96-2.29-2.81-2.29
			C59.52,49.5,56.26,49.51,52.99,49.51z"/>
		<path class="st0" d="M128.51,143.84c6.88-4.49,13.7-8.91,20.46-13.4c0.45-0.3,0.66-1.14,0.78-1.77c0.8-4.33,4.26-7.45,8.74-7.8
			c4.18-0.33,8.14,2.31,9.54,6.37c1.51,4.38-0.32,9.17-4.35,11.36c-4.1,2.23-9.05,1.17-12-2.58c-0.3-0.38-0.58-0.79-0.95-1.3
			c-6.48,4.19-12.91,8.35-19.55,12.65c6.38,3.43,12.58,6.76,18.83,10.12c0.34-0.58,0.6-1.05,0.89-1.51
			c2.35-3.69,6.81-5.3,11.05-3.99c4.08,1.26,6.8,5.11,6.62,9.37c-0.19,4.38-3.14,7.91-7.44,8.88c-4.89,1.11-9.87-1.87-11.27-6.7
			c-0.16-0.56-0.5-1.26-0.96-1.51c-6.82-3.73-13.67-7.4-20.67-11.17c-1.41,2.83-3.53,4.78-6.61,5.5c-2.05,0.48-4.05,0.23-5.96-0.62
			c-3.77-1.67-5.83-5.45-5.41-9.84c0.37-3.83,3.35-7.14,7.16-7.98C122.08,136.93,125.41,138.66,128.51,143.84z"/>
		<path class="st0" d="M140.63,85.93c-0.4,0-0.79,0.02-1.19,0c-1.36-0.08-2.27-0.96-2.31-2.24c-0.04-1.26,0.8-2.19,2.19-2.31
			c4.74-0.4,9.48-0.77,14.22-1.14c4.79-0.38,9.58-0.74,14.37-1.11c0.3-0.02,0.59-0.06,0.89-0.07c1.67-0.06,2.87,0.83,3.01,2.22
			c0.13,1.31-0.88,2.3-2.59,2.43c-9.53,0.74-19.06,1.45-28.59,2.18C140.63,85.9,140.63,85.91,140.63,85.93z"/>
		<path class="st0" d="M130.4,66.4c-0.68-0.54-1.58-0.9-1.71-1.44c-0.2-0.87-0.07-1.93,0.26-2.78c0.24-0.63,1.01-1.05,1.55-1.57
			c6.37-6.11,12.74-12.22,19.12-18.32c0.43-0.41,0.85-0.85,1.34-1.18c1.01-0.67,2-0.52,2.82,0.33c0.83,0.86,0.9,1.86,0.24,2.84
			c-0.3,0.44-0.73,0.81-1.12,1.18c-6.77,6.49-13.53,12.97-20.32,19.44C132,65.47,131.24,65.84,130.4,66.4z"/>
		<path class="st0" d="M166.77,105.33c-0.43-0.11-1.11-0.25-1.77-0.44c-8.85-2.48-17.71-4.94-26.55-7.47
			c-0.75-0.21-1.65-0.72-1.97-1.34c-0.3-0.6-0.23-1.87,0.21-2.25c0.63-0.56,1.81-0.94,2.62-0.77c2.99,0.65,5.92,1.55,8.87,2.38
			c6.28,1.76,12.56,3.53,18.84,5.3c0.29,0.08,0.57,0.18,0.85,0.25c1.3,0.33,1.93,1.21,1.85,2.5
			C169.65,104.54,168.32,105.38,166.77,105.33z"/>
		<path class="st0" d="M136.33,75.63c-0.6-0.68-1.41-1.28-1.75-2.07c-0.44-1.03,0.14-1.95,1.13-2.44c1.28-0.64,2.61-1.19,3.91-1.78
			c7.53-3.38,15.06-6.77,22.58-10.15c0.27-0.12,0.54-0.25,0.81-0.36c1.39-0.54,2.66-0.15,3.18,0.98c0.57,1.23,0.09,2.53-1.32,3.16
			c-9.06,4.07-18.14,8.1-27.21,12.14c-0.31,0.14-0.66,0.19-0.99,0.28C136.56,75.47,136.44,75.55,136.33,75.63z"/>
		<path class="st0" d="M136.83,30.64c-0.09,0.25-0.2,0.74-0.41,1.17c-4.23,8.62-8.47,17.24-12.7,25.86
			c-0.49,0.99-1.15,1.95-2.33,1.65c-0.74-0.18-1.48-0.89-1.92-1.55c-0.27-0.41-0.17-1.29,0.08-1.8c4.31-8.86,8.67-17.7,13.01-26.54
			c0.57-1.16,1.54-1.54,2.71-1.25C136.36,28.45,136.85,29.28,136.83,30.64z"/>
		<path class="st0" d="M54.22,125.78c-0.3,0.33-0.76,1.13-1.45,1.51c-1.37,0.76-2.86,1.31-4.33,1.89c-1.2,0.47-2.32,0.01-2.86-1.1
			c-0.55-1.13-0.17-2.45,1.02-3.02c1.55-0.74,3.14-1.41,4.76-2.01C52.8,122.51,54.27,123.7,54.22,125.78z"/>
		<path class="st0" d="M47.76,111.18c-0.36,0.37-0.89,1.22-1.66,1.67c-1.27,0.73-2.69,1.23-4.06,1.76c-1.29,0.5-2.41,0.03-2.96-1.17
			c-0.52-1.14-0.09-2.39,1.13-2.97c1.42-0.67,2.87-1.31,4.35-1.84C46.22,108.02,47.75,109.02,47.76,111.18z"/>
		<path class="st0" d="M51.02,118.33c-0.31,0.35-0.79,1.19-1.51,1.6c-1.32,0.75-2.78,1.27-4.2,1.83c-1.29,0.51-2.43,0.04-2.98-1.13
			c-0.53-1.14-0.11-2.41,1.12-2.98c1.47-0.7,2.97-1.36,4.5-1.89C49.5,115.2,50.96,116.23,51.02,118.33z"/>
	</g>
</g>
</svg>
