<?xml version="1.0" encoding="utf-8"?>
<!-- Generator: Adobe Illustrator 27.0.1, SVG Export Plug-In . SVG Version: 6.00 Build 0)  -->
<svg version="1.1" id="Layer_5" xmlns="http://www.w3.org/2000/svg" xmlns:xlink="http://www.w3.org/1999/xlink" x="0px" y="0px"
	 viewBox="0 0 200 200" style="enable-background:new 0 0 200 200;" xml:space="preserve">
<style type="text/css">
	.st0{fill:#083758;}
	.st1{fill:#9C8760;}
</style>
<g>
	<g>
		<path class="st0" d="M93.99,77.22c-0.43,1.72-0.97,3.31-1.22,4.96c-0.39,2.5-1.44,4.21-4.43,4.19c0.3,1.28,0.54,2.37,0.8,3.45
			c0.76,3.13,1.63,6.23,2.28,9.38c1.26,6.09-1.76,11.86-7.48,14.31c-0.94,0.4-1.22,0.87-1.2,1.85c0.07,2.83,0.04,5.65,0.02,8.48
			c-0.04,5.67-4.11,9.78-9.75,9.81c-6.2,0.03-12.4,0.03-18.6,0c-5.64-0.03-9.72-4.14-9.74-9.81c-0.02-6.15-0.02-12.3,0-18.45
			c0.02-5.74,4.11-9.8,9.87-9.83c3.77-0.02,7.54,0,11.43,0c0-6.31,0-12.58,0-18.98c-9.94,0.21-16.37-4.37-18.84-14.21
			c-3.51-0.4-6.95,2.68-7.21,6.49c-0.04,0.59-0.02,1.19-0.02,1.79c0,19.79,0,39.58,0,59.37c0,0.5,0.03,1-0.03,1.49
			c-0.16,1.28-1.21,2.23-2.43,2.13c-1.31-0.1-2.08-0.85-2.27-2.15c-0.07-0.44-0.03-0.89-0.03-1.34c0-19.94,0-39.88,0-59.82
			c0-7.48,4.23-12.12,11.72-12.89c0.09-0.01,0.18-0.07-0.07,0.03c1.09-2.44,1.8-4.81,3.1-6.79c3.24-4.95,7.99-7.45,13.91-7.49
			c8.93-0.06,17.85-0.01,26.78-0.03c0.87,0,1.78-0.12,2.62-0.38c11.81-3.67,23.61-7.38,35.42-11.08c2.95-0.92,4.13-0.07,4.13,2.98
			c0,4.22,0.01,8.43,0,12.65c0,1.88-0.88,2.97-2.36,2.98c-1.48,0.01-2.38-1.08-2.39-2.95c-0.01-3.42,0-6.84,0-10.45
			c-3.55,1.11-6.98,2.18-10.41,3.26c-7.23,2.26-14.44,4.55-21.69,6.75c-1.03,0.31-1.26,0.76-1.26,1.76
			c0.04,7.49,0.03,14.98,0.02,22.47c0,0.72-0.02,1.26,0.92,1.55c10.55,3.25,21.08,6.55,31.61,9.84c0.23,0.07,0.47,0.11,0.8,0.19
			c0-1.52,0-2.95,0-4.39c0-6.8-0.01-13.59,0-20.39c0-1.76,0.91-2.83,2.35-2.84c1.45-0.02,2.4,1.05,2.4,2.79
			c0.01,9.23,0.02,18.45,0,27.68c0,2.32-1.37,3.27-3.65,2.56c-11.2-3.49-22.39-6.99-33.59-10.48C95.06,77.5,94.59,77.39,93.99,77.22
			z M63.72,100.33c-3.12,0-6.25-0.02-9.37,0.01c-2.87,0.03-4.89,2.01-4.9,4.87c-0.03,6.25-0.03,12.5,0,18.75
			c0.01,2.95,2.01,4.93,4.98,4.95c6.2,0.02,12.4,0.02,18.59,0c2.96-0.01,4.97-1.99,4.98-4.94c0.03-6.2,0.03-12.4,0-18.6
			c-0.01-3.05-1.99-5-5.05-5.02C69.87,100.31,66.8,100.33,63.72,100.33z M82.74,108.69c3.26-1.68,4.82-5.14,4.02-8.65
			c-0.59-2.61-1.27-5.19-1.92-7.79c-1.31-5.22-2.62-10.44-3.92-15.63c-3.41,0-6.7,0-9.99,0c0,6.34,0,12.57,0,18.98
			c3.61-0.32,6.85,0.36,9.38,3.11C82.92,101.54,82.9,105.01,82.74,108.69z M61.26,71.38c0-7.76,0-15.41,0-23.08
			c-5.39,0.92-9.46,5.97-9.43,11.62C51.85,65.49,55.95,70.51,61.26,71.38z M89.84,48.04c-7.96,0-15.8,0-23.62,0
			c0,1.61,0,3.11,0,4.59c7.93,0,15.74,0,23.62,0C89.84,51.09,89.84,49.62,89.84,48.04z M89.84,57.57c-7.97,0-15.82,0-23.62,0
			c0,1.61,0,3.11,0,4.58c7.93,0,15.74,0,23.62,0C89.84,60.61,89.84,59.14,89.84,57.57z M89.83,71.69c0-1.64,0-3.1,0-4.61
			c-7.92,0-15.77,0-23.62,0c0,1.59,0,3.09,0,4.61C74.12,71.69,81.93,71.69,89.83,71.69z M87.17,81.86c1.48-1.56,1.46-3.47,2.03-5.28
			c-1.2,0-2.22,0-3.36,0C86.3,78.4,86.74,80.13,87.17,81.86z"/>
		<path class="st0" d="M163.6,143.25c-16.64,0-33.18,0-49.88,0c0,0.64,0.01,1.22,0,1.8c-0.03,2.04-0.87,2.89-2.91,2.89
			c-8.28,0.01-16.56,0-24.84,0c-0.25,0-0.5,0-0.74,0c-4.62,0-4.62,0-4.89-4.65c-16.57,0-33.16,0-49.74,0
			c-1.47,6.87,3.92,13.79,11.04,14.15c0.64,0.03,1.29,0.02,1.93,0.02c22.86,0,45.72,0,68.58,0c0.45,0,0.89-0.01,1.34,0
			c1.6,0.06,2.64,1.05,2.6,2.44c-0.04,1.34-1.05,2.28-2.59,2.3c-2.48,0.03-4.96,0.01-7.44,0.01c-21.13,0-42.25,0.01-63.38-0.01
			c-8.16-0.01-14.86-5.11-16.53-12.91c-0.6-2.81-0.43-5.81-0.47-8.72c-0.02-1.23,0.87-1.96,2.09-2.14c0.49-0.07,0.99-0.03,1.49-0.03
			c17.31,0,34.61,0,51.92,0c3.48,0,3.87,0.39,3.97,3.92c0.01,0.24,0.03,0.47,0.06,0.77c7.9,0,15.72,0,23.75,0
			c0-0.77-0.04-1.54,0.01-2.31c0.09-1.42,0.95-2.26,2.37-2.37c0.44-0.03,0.89-0.01,1.34-0.01c13.19,0,26.38,0,39.57,0
			c0.59,0,1.17,0,1.94,0c0-0.68,0-1.26,0-1.84c0-16.22,0-32.44,0-48.66c0-0.3,0-0.6,0-0.89c0-2.26,0.82-3.4,2.42-3.37
			c1.55,0.03,2.34,1.13,2.34,3.3c0,7.39,0,14.78,0,22.17c0,9.18,0,18.35,0,27.53c0,0.53,0,1.07,0,1.75c2.25,0,4.37-0.01,6.49,0
			c2.23,0.01,3.06,0.82,3.03,3.06c-0.04,2.28,0.03,4.58-0.29,6.82c-1.08,7.57-7.75,13.7-15.41,13.85
			c-9.77,0.19-19.54,0.07-29.31,0.06c-1.59,0-2.63-1.06-2.58-2.46c0.05-1.39,1.08-2.29,2.75-2.29c9.12-0.01,18.25,0,27.37-0.01
			C159.21,157.47,164.43,151.63,163.6,143.25z"/>
		<path class="st0" d="M144.67,108.02c-5.73,5.09-11.18,9.93-16.62,14.77c-2.06,1.83-2.78,1.83-4.81,0.02
			c-5.44-4.84-10.89-9.68-16.52-14.68c0,6.98,0,13.76,0,20.77c0.45,0,0.97,0,1.49,0c9.37,0,18.75,0,28.12,0c0.5,0,1-0.05,1.48,0.04
			c1.28,0.23,2.06,1.02,2.06,2.34c0,1.32-0.78,2.1-2.05,2.35c-0.38,0.07-0.79,0.04-1.19,0.04c-10.51,0-21.03,0-31.54,0
			c-2.53,0-3.27-0.74-3.27-3.27c0-8.93,0-17.86,0-26.79c0-2.54,0.74-3.27,3.27-3.27c13.69,0,27.38,0,41.06,0
			c2.53,0,3.27,0.74,3.27,3.27c0,8.93,0,17.86,0,26.79c0,0.25,0.01,0.5-0.01,0.74c-0.08,1.52-1.03,2.52-2.38,2.52
			c-1.35,0-2.35-1-2.36-2.52c-0.04-3.57-0.01-7.14-0.01-10.71C144.67,116.41,144.67,112.4,144.67,108.02z M110.55,105.17
			c5.18,4.6,10.11,8.99,15.08,13.4c5.02-4.47,9.93-8.83,15.06-13.4C130.55,105.17,120.76,105.17,110.55,105.17z"/>
		<path class="st0" d="M151.66,62.23c-2.98,0-5.95,0.01-8.93,0c-1.75-0.01-2.82-0.93-2.82-2.38c0-1.45,1.05-2.37,2.81-2.38
			c6.05-0.01,12.1-0.01,18.15,0c1.75,0,2.82,0.93,2.82,2.37c0,1.44-1.07,2.37-2.81,2.38C157.81,62.24,154.73,62.23,151.66,62.23z"/>
		<path class="st0" d="M142.28,50.33c-1.24-0.11-2.08-0.74-2.31-1.95c-0.23-1.22,0.3-2.18,1.46-2.61c1.71-0.65,3.46-1.18,5.2-1.76
			c3.05-1.02,6.09-2.06,9.15-3.04c1.34-0.43,2.55,0.21,3.01,1.44c0.45,1.2-0.1,2.54-1.44,3c-4.82,1.66-9.66,3.25-14.49,4.86
			C142.68,50.31,142.47,50.3,142.28,50.33z"/>
		<path class="st0" d="M158.93,75.88c0.03,2.13-1.41,3.4-2.91,2.92c-4.9-1.56-9.78-3.21-14.64-4.9c-1.26-0.44-1.75-1.76-1.34-2.92
			c0.44-1.24,1.66-1.9,3-1.47c4.75,1.54,9.51,3.09,14.21,4.77C158.04,74.57,158.58,75.54,158.93,75.88z"/>
		<path class="st0" d="M152.11,28.84c-0.53,0.8-0.8,1.55-1.34,1.97c-3.08,2.39-6.21,4.73-9.35,7.04c-1.24,0.91-2.59,0.69-3.41-0.41
			c-0.82-1.09-0.63-2.46,0.59-3.39c3.06-2.34,6.16-4.63,9.24-6.94c0.86-0.65,1.85-0.91,2.74-0.24
			C151.19,27.35,151.56,28.12,152.11,28.84z"/>
		<path class="st0" d="M139.7,80.97c0.9,0.48,1.51,0.71,2.01,1.08c2.94,2.17,5.86,4.37,8.77,6.58c1.42,1.08,1.71,2.4,0.86,3.57
			c-0.86,1.18-2.25,1.31-3.65,0.27c-3.02-2.24-6.01-4.5-9.01-6.75c-0.96-0.72-1.54-1.72-0.94-2.82
			C138.14,82.12,139.02,81.61,139.7,80.97z"/>
		<path class="st0" d="M44.67,150.29c0.02,1.29-1.04,2.39-2.33,2.41c-1.29,0.02-2.38-1.04-2.41-2.33c-0.02-1.29,1.03-2.38,2.33-2.41
			C43.55,147.94,44.64,149,44.67,150.29z"/>
		<path class="st0" d="M54.19,150.29c0.02,1.29-1.04,2.39-2.33,2.41c-1.29,0.02-2.38-1.04-2.41-2.33c-0.02-1.29,1.03-2.38,2.33-2.41
			C53.07,147.94,54.16,149,54.19,150.29z"/>
		<path class="st0" d="M147.03,150.29c0.02,1.29-1.04,2.39-2.33,2.41c-1.29,0.02-2.38-1.04-2.41-2.33
			c-0.02-1.29,1.03-2.38,2.33-2.41C145.91,147.94,147.01,149,147.03,150.29z"/>
		<path class="st0" d="M156.56,150.3c0.01,1.29-1.06,2.38-2.35,2.39c-1.29,0.01-2.38-1.05-2.39-2.35c-0.01-1.29,1.05-2.38,2.34-2.39
			C155.45,147.95,156.54,149.01,156.56,150.3z"/>
		<path class="st0" d="M54.2,114.59c0-2.23-0.02-4.46,0.01-6.7c0.03-2.38,1.67-3.41,3.81-2.36c4.53,2.23,9.07,4.45,13.53,6.81
			c0.75,0.39,1.42,1.39,1.62,2.23c0.27,1.13-0.63,1.88-1.63,2.38c-4.52,2.25-9.03,4.53-13.56,6.76c-2.13,1.05-3.74-0.01-3.77-2.42
			C54.18,119.06,54.2,116.82,54.2,114.59z M65.53,114.61c-2.34-1.17-4.35-2.17-6.49-3.24c0,2.23,0,4.27,0,6.49
			C61.19,116.78,63.2,115.78,65.53,114.61z"/>
	</g>
</g>
</svg>
