<?xml version="1.0" encoding="utf-8"?>
<!-- Generator: Adobe Illustrator 27.0.1, SVG Export Plug-In . SVG Version: 6.00 Build 0)  -->
<svg version="1.1" id="Layer_5" xmlns="http://www.w3.org/2000/svg" xmlns:xlink="http://www.w3.org/1999/xlink" x="0px" y="0px"
	 viewBox="0 0 200 200" style="enable-background:new 0 0 200 200;" xml:space="preserve">
<style type="text/css">
	.st0{fill:#083758;}
	.st1{fill:#9C8760;}
</style>
<g>
	<g>
		<path class="st0" d="M162.09,99.86c3.62,0,7.03,0,10.44,0c0.55,0,1.09,0,1.64,0.01c1.35,0.02,1.99,0.75,2,2.06
			c0.01,8.87,0.01,17.75-0.01,26.62c0,1.41-0.69,2.02-2.17,2.03c-3.42,0.02-6.84,0.01-10.26,0.01c-0.48,0-0.96,0.04-1.58,0.07
			c0,0.62,0,1.16,0,1.69c0,5.9,0.01,11.8,0,17.7c-0.02,5.58-3.55,9.1-9.12,9.1c-10.02,0.01-20.03,0-30.05,0c-0.54,0-1.08,0-1.73,0
			c0,3.36,0,6.65,0,10.11c2.18,0,4.35-0.01,6.51,0c1.59,0.01,2.41,0.65,2.32,1.84c-0.1,1.41-1.06,1.74-2.29,1.74
			c-13.98-0.01-27.97,0-41.95-0.01c-1.48,0-2.24-0.64-2.23-1.79c0.01-1.15,0.75-1.76,2.25-1.77c2.17-0.02,4.34,0,6.61,0
			c0-3.36,0-6.61,0-10.11c-0.47,0-0.99,0-1.51,0c-10.02,0-20.03,0-30.05,0c-5.86,0-9.3-3.46-9.31-9.36
			c-0.01-5.45-0.04-10.91,0.03-16.36c0.01-1.14-0.3-1.59-1.43-1.9c-7.53-2.01-12.66-8.73-12.64-16.41
			c0.02-7.73,5.24-14.43,12.87-16.38c1-0.26,1.24-0.71,1.2-1.64c-0.05-1.19-0.05-2.39,0.09-3.56c0.48-4.25,3.76-7.3,8.05-7.55
			c0.3-0.02,0.59-0.02,0.89-0.02c30.79,0,61.59,0,92.38,0c5.49,0,9.01,3.51,9.08,9.01c0.01,1.04,0,2.08,0,3.12
			C162.09,98.62,162.09,99.11,162.09,99.86z M130.64,113.29c6.53,0,12.89,0,19.37,0c0-3.72-0.01-7.33,0-10.94
			c0.01-1.94,0.53-2.47,2.46-2.49c1.96-0.01,3.93,0,6.04,0c0-1.55,0-2.88,0-4.2c0-4.36-1.76-6.1-6.16-6.1c-30.35,0-60.71,0-91.07,0
			c-0.5,0-0.99-0.02-1.49,0.02c-2.16,0.17-4.06,1.58-4.41,3.58c-0.29,1.62-0.22,3.31-0.3,4.9c11.14,2.89,13.72,5.31,16.48,15.29
			c5.08,0,10.14,0,15.17,0c0.06-0.19,0.08-0.24,0.08-0.29c0.01-1.98,0.01-3.97,0.04-5.95c0.04-2.41,1.26-3.63,3.69-3.69
			c1.34-0.03,2.68-0.01,4.02-0.01c3.26,0.01,4.4,1.12,4.4,4.37c0.01,5.65,0,11.31,0,16.96c0,0.58,0,1.16,0,1.8c1.33,0,2.48,0,3.7,0
			c0-0.66,0-1.21,0-1.75c0-7.04-0.01-14.08,0.01-21.13c0.01-2.48,1.26-3.76,3.73-3.84c1.34-0.04,2.68-0.02,4.02-0.01
			c3.25,0.02,4.41,1.16,4.41,4.38c0,6.94,0,13.89,0,20.83c0,0.52,0.05,1.04,0.07,1.52c1.29,0,2.4,0,3.61,0c0-0.66,0-1.2,0-1.74
			c0-4.86-0.02-9.72,0.01-14.58c0.01-2.72,1.33-3.99,4.04-4.02c1.34-0.01,2.68-0.01,4.02,0c2.72,0.02,4.03,1.31,4.05,3.99
			C130.65,111.17,130.64,112.16,130.64,113.29z M158.4,140.6c-34.47,0-68.79,0-103.25,0c0,3.08,0,6.05,0,9.01
			c0,4.2,1.77,5.97,5.96,5.97c30.49,0,60.98,0,91.46,0c0.45,0,0.89,0.02,1.34-0.01c2.29-0.16,4.31-1.77,4.43-4.06
			C158.55,147.92,158.4,144.3,158.4,140.6z M158.41,130.59c-1.19,0-2.18,0-3.17,0c-1.04,0-2.08,0.02-3.12-0.01
			c-1.47-0.04-2.07-0.64-2.13-2.07c-0.03-0.69-0.01-1.39-0.01-2.08c0-3.11,0-6.21,0-9.35c-6.54,0-12.9,0-19.26,0
			c0,3.22,0,6.32,0,9.58c0.96,0,1.84-0.01,2.72,0c1.18,0.01,1.92,0.6,1.92,1.79c0,1.12-0.75,1.67-1.83,1.76
			c-0.44,0.04-0.89,0.01-1.34,0.01c-15.62,0-31.24,0-46.86,0c-0.4,0-0.79,0.01-1.19-0.01c-1.21-0.05-2.05-0.59-2-1.88
			c0.05-1.21,0.87-1.69,2.03-1.68c0.87,0.01,1.73,0,2.57,0c0-3.36,0-6.46,0-9.61c-5.14,0-10.18,0-15.16,0
			c-1.8,8.64-6.71,13.91-15.59,15.08c-0.31,0.04-0.78,0.49-0.8,0.77c-0.09,1.27-0.04,2.55-0.04,3.93c34.49,0,68.82,0,103.25,0
			C158.41,134.77,158.41,132.76,158.41,130.59z M54.44,128.62c7.29,0.16,13.34-5.71,13.55-13.14c0.2-7.35-5.77-13.58-13.14-13.72
			c-7.39-0.14-13.59,5.8-13.73,13.15C40.97,122.34,46.91,128.45,54.44,128.62z M153.65,126.93c6.33,0,12.55,0,18.82,0
			c0-7.84,0-15.6,0-23.4c-6.31,0-12.53,0-18.82,0C153.65,111.34,153.65,119.06,153.65,126.93z M96.19,169.15c7.18,0,14.22,0,21.23,0
			c0-3.39,0-6.67,0-9.93c-7.14,0-14.15,0-21.23,0C96.19,162.54,96.19,165.79,96.19,169.15z M111.21,103.53c-1.7,0-3.26,0-4.84,0
			c0,7.74,0,15.39,0,23c1.68,0,3.23,0,4.84,0C111.21,118.82,111.21,111.25,111.21,103.53z M95.28,126.59c0-6.58,0-13.08,0-19.63
			c-1.64,0-3.16,0-4.74,0c0,6.58,0,13.08,0,19.63C92.17,126.59,93.69,126.59,95.28,126.59z M126.96,126.58c0-5.63,0-11.19,0-16.75
			c-1.63,0-3.15,0-4.73,0c0,5.62,0,11.18,0,16.75C123.87,126.58,125.39,126.58,126.96,126.58z"/>
		<path class="st0" d="M156.07,65.71c-9.61,7.92-21.09,5.61-27.15-1.39c-6.46-7.47-6.25-18.38,0.44-25.46
			c6.62-7,17.52-7.89,25.16-2.14c7.52,5.66,10.45,17.01,3.64,26.72c1.05,0.95,2.11,1.97,3.26,2.9c0.3,0.24,0.9,0.32,1.29,0.22
			c1.87-0.51,3.43-0.02,4.77,1.29c1.88,1.84,3.75,3.68,5.57,5.58c1.98,2.06,1.87,4.81-0.2,6.89c-2.06,2.08-4.83,2.22-6.89,0.25
			c-1.94-1.85-3.8-3.77-5.66-5.69c-1.27-1.31-1.66-2.87-1.23-4.66c0.1-0.41,0.06-1.01-0.18-1.32C158,67.78,157,66.74,156.07,65.71z
			 M143.16,36.48c-8.58,0.04-15.38,6.87-15.33,15.42c0.05,8.42,6.99,15.3,15.41,15.25c8.42-0.05,15.3-6.99,15.27-15.39
			C158.47,43.29,151.59,36.45,143.16,36.48z M170.95,76.92c-0.14-0.41-0.15-0.7-0.3-0.85c-1.99-2.01-3.96-4.03-6.04-5.93
			c-0.24-0.22-1.28,0.07-1.6,0.43c-0.31,0.35-0.43,1.34-0.17,1.63c1.8,1.98,3.7,3.87,5.63,5.72c0.27,0.26,0.99,0.34,1.34,0.18
			C170.27,77.86,170.59,77.3,170.95,76.92z"/>
		<path class="st0" d="M92.3,49.68c0.71,0,1.24,0,1.77,0c6.5,0,13,0,19.49,0.01c0.54,0,1.22-0.08,1.58,0.2
			c0.52,0.41,1.17,1.16,1.1,1.68c-0.09,0.6-0.83,1.19-1.41,1.61c-0.3,0.22-0.87,0.07-1.31,0.07c-6.45,0-12.9,0-19.34,0
			c-0.54,0-1.08,0-1.64,0c0,3.17-0.2,6.28,0.08,9.35c0.16,1.82,2,2.79,4.2,2.79c7.94,0.01,15.87,0,23.81,0.01
			c0.45,0,0.9-0.02,1.34,0.02c1.05,0.09,1.66,0.71,1.67,1.73c0.02,1.03-0.62,1.64-1.63,1.79c-0.39,0.06-0.79,0.03-1.19,0.03
			c-7.89,0-15.77,0-23.66,0c-5.31,0-8.42-3.1-8.43-8.39c-0.01-6.05-0.01-12.1,0-18.15c0.01-5.28,3.04-8.36,8.27-8.37
			c7.99-0.02,15.97-0.01,23.96,0c0.44,0,1.02-0.12,1.31,0.11c0.55,0.45,1.26,1.08,1.31,1.68c0.04,0.51-0.65,1.25-1.2,1.6
			c-0.44,0.28-1.15,0.17-1.74,0.17c-7.74,0.01-15.47,0-23.21,0.01c-3.73,0-5.11,1.4-5.12,5.12C92.3,44.96,92.3,47.19,92.3,49.68z"/>
		<path class="st0" d="M67.6,34.13c2.68,0,5.36-0.16,8.03,0.04c3.85,0.28,7.05,3.79,7.04,7.57c0,0.66-0.47,1.53-1.01,1.91
			c-0.39,0.28-1.33,0.06-1.86-0.23c-0.36-0.2-0.56-0.9-0.63-1.4c-0.44-2.9-2.06-4.38-5.01-4.4c-4.36-0.03-8.73-0.02-13.09,0
			c-2.81,0.01-4.75,1.47-5.1,3.78c-0.38,2.49,1.02,4.74,3.63,5.59c4.32,1.42,8.67,2.77,13.01,4.16c1.51,0.48,3.03,0.93,4.51,1.48
			c3.79,1.42,6.15,5.37,5.54,9.19c-0.65,4.06-3.77,6.87-8.03,6.95c-4.91,0.1-9.82,0.11-14.72-0.05c-3.85-0.13-6.89-3.09-7.46-6.88
			c-0.05-0.34-0.06-0.69-0.06-1.04C52.4,59.69,53,59,54.09,58.95c1.02-0.05,1.64,0.58,1.83,1.59c0.72,3.69,1.95,4.71,5.75,4.71
			c4.07,0,8.13,0.01,12.2,0c2.98-0.01,4.83-1.36,5.25-3.79c0.43-2.47-1.05-4.76-3.76-5.64c-5.55-1.81-11.13-3.54-16.68-5.33
			c-5.29-1.7-7.82-7.29-5.41-11.98c1.34-2.61,3.51-4.2,6.46-4.36c2.62-0.15,5.25-0.03,7.88-0.03C67.6,34.11,67.6,34.12,67.6,34.13z"
			/>
		<path class="st0" d="M106.79,150.54c-0.84,0-1.68,0.01-2.52,0c-1.1-0.01-1.82-0.55-1.88-1.66c-0.07-1.2,0.69-1.84,1.82-1.88
			c1.77-0.06,3.55-0.07,5.33,0.01c1.07,0.05,1.77,0.69,1.74,1.81c-0.04,1.11-0.72,1.69-1.83,1.71
			C108.57,150.56,107.68,150.54,106.79,150.54z"/>
		<path class="st0" d="M48.47,107.01c0.74,0.57,1.31,1.09,1.96,1.48c0.43,0.26,1.11,0.56,1.46,0.39c0.43-0.21,0.71-0.86,0.92-1.37
			c0.14-0.34-0.1-0.9,0.1-1.15c0.46-0.61,1.01-1.41,1.65-1.56c0.97-0.23,1.65,0.52,1.79,1.54c0.07,0.49-0.07,1.03,0.09,1.47
			c0.16,0.43,0.51,0.91,0.91,1.09c0.33,0.15,0.95,0.03,1.25-0.22c1.75-1.45,2.59-1.7,3.38-0.74c1.16,1.42,0.06,2.31-0.79,3.3
			c-0.27,0.32-0.44,1.02-0.28,1.35c0.2,0.41,0.8,0.63,1.25,0.88c0.15,0.08,0.39,0.02,0.59,0.02c1.24-0.03,2.19,0.37,2.3,1.75
			c0.09,1.13-0.8,1.76-2.38,1.83c-0.69,0.03-1.41-0.21-1.83,0.79c-0.42,1.02,0.36,1.27,0.73,1.85c0.4,0.62,0.89,1.37,0.87,2.04
			c-0.03,1.21-1.54,1.79-2.61,1.1c-0.49-0.32-0.83-0.88-1.33-1.16c-0.35-0.2-0.92-0.24-1.29-0.1c-0.36,0.15-0.73,0.58-0.85,0.96
			c-0.14,0.45,0.15,1.09-0.07,1.45c-0.38,0.65-0.92,1.46-1.55,1.64c-0.95,0.27-1.69-0.41-1.86-1.45c-0.09-0.53,0.05-1.12-0.1-1.62
			c-0.12-0.39-0.46-0.85-0.82-1c-0.36-0.14-0.91-0.03-1.28,0.16c-0.38,0.19-0.63,0.62-0.97,0.91c-0.82,0.72-1.73,0.83-2.52,0.04
			c-0.79-0.78-0.72-1.69-0.01-2.52c0.29-0.34,0.72-0.59,0.91-0.97c0.18-0.37,0.27-0.91,0.13-1.27c-0.14-0.37-0.58-0.74-0.96-0.86
			c-0.5-0.16-1.2,0.12-1.59-0.13c-0.63-0.4-1.47-1.09-1.48-1.66c-0.01-0.58,0.84-1.25,1.43-1.71c0.29-0.22,0.9,0.01,1.3-0.13
			c0.48-0.17,1.12-0.43,1.29-0.83c0.17-0.38-0.09-1.02-0.31-1.47c-0.19-0.38-0.75-0.61-0.86-0.99c-0.18-0.62-0.32-1.38-0.1-1.93
			C47.11,107.73,47.84,107.47,48.47,107.01z M57.81,115.25c0.02-1.83-1.44-3.32-3.24-3.33c-1.77,0-3.32,1.56-3.29,3.32
			c0.03,1.76,1.44,3.17,3.21,3.21C56.35,118.5,57.79,117.11,57.81,115.25z"/>
		<path class="st0" d="M162.93,120.47c1.53,0,3.06,0,4.59,0c1.2,0,2.08,0.46,2.09,1.76c0.02,1.29-0.83,1.81-2.04,1.81
			c-3.01,0-6.03,0.01-9.04,0c-1.21,0-2.04-0.53-2.02-1.83c0.02-1.22,0.82-1.72,1.96-1.73C159.97,120.46,161.45,120.47,162.93,120.47
			z"/>
		<path class="st0" d="M163.09,110c-1.53,0-3.06,0.02-4.59-0.01c-1.2-0.02-2.03-0.57-1.98-1.88c0.05-1.22,0.87-1.68,2.01-1.68
			c3.01,0,6.02,0,9.04,0c1.21,0,2.06,0.48,2.05,1.79c-0.01,1.31-0.91,1.77-2.09,1.78C166.06,110.01,164.57,110,163.09,110z"/>
		<path class="st0" d="M162.95,116.97c-1.49,0-2.98,0-4.46,0c-1.16,0-1.94-0.5-1.97-1.73c-0.02-1.24,0.8-1.8,1.91-1.81
			c3.07-0.04,6.15-0.04,9.22,0c1.19,0.02,2.04,0.6,1.97,1.91c-0.07,1.23-0.92,1.65-2.06,1.64
			C166.03,116.96,164.49,116.97,162.95,116.97z"/>
	</g>
</g>
</svg>
