<?xml version="1.0" encoding="utf-8"?>
<!-- Generator: Adobe Illustrator 27.0.1, SVG Export Plug-In . SVG Version: 6.00 Build 0)  -->
<svg version="1.1" id="Layer_5" xmlns="http://www.w3.org/2000/svg" xmlns:xlink="http://www.w3.org/1999/xlink" x="0px" y="0px"
	 viewBox="0 0 200 200" style="enable-background:new 0 0 200 200;" xml:space="preserve">
<style type="text/css">
	.st0{fill:#083758;}
	.st1{fill:#9C8760;}
</style>
<g>
	<g>
		<path class="st0" d="M170.59,140.97c-0.36,1.63-0.64,3.29-1.09,4.89c-3.12,11.07-12.49,19.4-23.7,20.61
			c-12.17,1.32-21.89-3.18-28.25-13.69c-7.56-12.5-14.65-25.28-21.95-37.94c-0.34-0.59-0.69-1.18-1.15-1.95
			c-0.37,0.59-0.67,1.01-0.93,1.46c-7.25,12.57-14.51,25.14-21.75,37.72c-4.22,7.33-10.29,12.24-18.66,14
			c-15.02,3.15-31.6-5.94-34.43-22.73c-1.14-6.78-0.14-13.25,3.31-19.23c13.54-23.53,27.11-47.03,40.68-70.54
			c2.35-4.08,4.72-8.14,7.09-12.21c7.85-13.43,24.73-18.15,38.41-10.76c0.52,0.28,1.22,0.23,1.76,0.49c0.78,0.38,1.68,0.75,2.2,1.39
			c1.8,2.17,3.68,4.32,5.13,6.73c7.93,13.15,15.83,26.31,23.57,39.57c8.49,14.54,16.78,29.2,25.18,43.8
			c2.2,3.82,3.88,7.8,4.35,12.22c0.02,0.18,0.15,0.35,0.23,0.53C170.59,137.2,170.59,139.09,170.59,140.97z M96.08,33.53
			c-13.69-0.18-25.36,10.12-23.76,25.31c0.37,3.54,2.2,6.56,3.9,9.56c9.64,16.91,19.35,33.78,29.05,50.64
			c5.76,10,11.53,19.99,17.35,29.96c6.63,11.35,20.68,14.82,31.51,7.82c9.82-6.35,13.1-19.23,7.28-29.44
			c-11.23-19.71-22.54-39.37-33.91-58.99c-4.99-8.61-10.16-17.12-15.31-25.64C108.17,36.09,101.7,33.99,96.08,33.53z M66.11,60.36
			c-9.89,17.14-19.61,33.97-29.5,51.1c8.67-2.91,16.8-2.4,24.48,2.04c7.66,4.43,12.16,11.21,13.96,20.03
			c0.29-0.39,0.42-0.53,0.51-0.7c4.88-8.44,9.74-16.9,14.65-25.32c0.45-0.78,0.32-1.32-0.09-2.03c-4.47-7.65-8.99-15.27-13.34-22.99
			C72.82,75.45,68.01,68.81,66.11,60.36z M46.68,160.38c12.41,0.04,22.38-10.09,22.4-22.76c0.02-11.78-10.3-21.62-22.7-21.63
			c-12.02-0.02-21.83,9.98-21.82,22.23C24.56,150.4,34.49,160.34,46.68,160.38z"/>
	</g>
</g>
</svg>
