<?xml version="1.0" encoding="utf-8"?>
<!-- Generator: Adobe Illustrator 27.0.1, SVG Export Plug-In . SVG Version: 6.00 Build 0)  -->
<svg version="1.1" id="Layer_5" xmlns="http://www.w3.org/2000/svg" xmlns:xlink="http://www.w3.org/1999/xlink" x="0px" y="0px"
	 viewBox="0 0 200 200" style="enable-background:new 0 0 200 200;" xml:space="preserve">
<style type="text/css">
	.st0{fill:#083758;}
	.st1{fill:#9C8760;}
</style>
<g>
	<g>
		<path class="st0" d="M163.83,121.39c0-0.6,0-1.09,0-1.58c0-22.07,0-44.14,0-66.21c0-2.93-0.61-3.52-3.6-3.52
			c-1.19,0-2.38,0.03-3.57-0.01c-1.47-0.06-2.34-0.94-2.37-2.31c-0.03-1.44,0.86-2.38,2.41-2.42c1.73-0.04,3.47-0.07,5.21,0.02
			c3.53,0.18,6.43,3.1,6.66,6.63c0.03,0.49,0.02,0.99,0.02,1.49c0,27.87,0,55.75,0,83.62c0,5.45-2.79,8.22-8.25,8.22
			c-42.1,0-84.21,0-126.31,0c-5.47,0-8.27-2.78-8.27-8.21c0-27.87,0-55.75,0-83.62c0-5.36,2.8-8.16,8.16-8.16
			c1.19,0,2.38-0.02,3.57,0.01c1.68,0.04,2.59,0.92,2.57,2.42c-0.02,1.42-0.93,2.29-2.51,2.33c-1.34,0.03-2.68,0-4.02,0.01
			c-2.23,0.02-3,0.8-3,3.07c-0.01,10.02,0,20.04,0,30.06c0,12.15,0,24.3,0,36.45c0,0.54,0,1.08,0,1.73
			C74.95,121.39,119.3,121.39,163.83,121.39z M30.52,126.31c0,3.6,0,7.06,0,10.53c0,3.15,0.55,3.69,3.73,3.69
			c41.94,0,83.88,0,125.83,0c0.35,0,0.69,0.01,1.04,0c1.86-0.05,2.7-0.88,2.71-2.77c0.02-3.57,0.01-7.14,0-10.71
			c0-0.23-0.06-0.46-0.09-0.74C119.34,126.31,75.03,126.31,30.52,126.31z"/>
		<path class="st0" d="M144.78,54.91c-31.83,0-63.45,0-95.22,0c0,0.65,0,1.23,0,1.81c0,18.79,0,37.59,0,56.38
			c0,0.5,0.03,1-0.02,1.49c-0.15,1.33-1.11,2.2-2.41,2.13c-1.31-0.07-2.11-0.77-2.3-2.09c-0.06-0.44-0.03-0.89-0.03-1.34
			c0-24.74,0-49.49,0-74.23c0-5.16,2.85-8.03,7.99-8.03c29.6,0,59.2,0,88.8,0c5.05,0,7.95,2.88,7.95,7.92c0,24.89,0,49.79,0,74.68
			c0,2.06-0.67,3-2.17,3.12c-1.38,0.1-2.42-0.73-2.56-2.1c-0.05-0.49-0.02-0.99-0.02-1.49c0-18.79,0-37.59,0-56.38
			C144.78,56.19,144.78,55.6,144.78,54.91z M144.78,50.02c0-3.63,0-7.09,0-10.56c0-3.09-0.57-3.67-3.6-3.67c-29.35,0-58.7,0-88.05,0
			c-0.3,0-0.6-0.01-0.89,0c-1.8,0.05-2.64,0.86-2.67,2.65c-0.03,1.73-0.01,3.47-0.01,5.21c0,2.11,0,4.22,0,6.37
			C81.37,50.02,112.99,50.02,144.78,50.02z"/>
		<path class="st0" d="M81.98,159.55c10.15,0,20.25,0,30.53,0c-0.29-0.42-0.5-0.71-0.7-1.02c-1.06-1.61-2.19-3.18-3.15-4.85
			c-0.84-1.47-0.39-2.94,0.89-3.55c1.26-0.6,2.41-0.01,3.34,1.35c1.5,2.2,3.14,4.3,4.76,6.42c1.03,1.36,2.38,1.9,4.14,1.74
			c1.16-0.11,2.4-0.01,3.53,0.28c2.96,0.76,5.07,3.49,5.17,6.53c0.06,1.63,0.05,3.27,0,4.91c-0.04,1.58-0.94,2.44-2.52,2.52
			c-0.35,0.02-0.69,0.01-1.04,0.01c-19.83,0-39.67,0-59.5,0c-2.93,0-3.57-0.65-3.57-3.57c0-1.24-0.03-2.48,0.01-3.72
			c0.12-3.88,3.23-7.26,7.07-6.89c3.56,0.34,5.71-1.25,7.59-3.77c1.06-1.42,2.02-2.93,2.95-4.45c0.86-1.41,2.07-1.96,3.32-1.35
			c1.28,0.61,1.73,2.08,0.89,3.55C84.56,155.64,83.28,157.51,81.98,159.55z M125.66,169.06c0.31-4.18-0.17-4.71-4.11-4.71
			c-16.45,0-32.91,0-49.36,0c-0.45,0-0.89-0.02-1.34,0.02c-1.25,0.11-2.03,0.82-2.19,2.04c-0.11,0.86-0.02,1.74-0.02,2.65
			C87.73,169.06,106.65,169.06,125.66,169.06z"/>
		<path class="st0" d="M103.96,64.35c2.07-0.02,3.12,1.5,2.53,3.33c-1.42,4.38-2.88,8.74-4.33,13.1
			c-3.16,9.48-6.32,18.95-9.48,28.43c-0.78,2.33-1.8,3.15-3.34,2.65c-1.64-0.53-1.97-1.75-1.16-4.2c4.57-13.7,9.15-27.4,13.7-41.11
			C102.28,65.32,102.88,64.43,103.96,64.35z"/>
		<path class="st0" d="M67.57,88.17c3.94,3.28,7.74,6.44,11.53,9.61c0.45,0.38,0.96,0.77,1.23,1.27c0.59,1.1,0.33,2.14-0.62,2.93
			c-1.03,0.86-2.1,0.74-3.1-0.09c-3.12-2.59-6.24-5.2-9.36-7.8c-1.52-1.27-3.05-2.52-4.56-3.81c-1.64-1.39-1.65-2.85-0.01-4.22
			c4.51-3.79,9.04-7.56,13.57-11.33c1.36-1.13,2.75-1.13,3.68-0.06c0.98,1.14,0.75,2.55-0.66,3.73
			C75.44,81.62,71.59,84.81,67.57,88.17z"/>
		<path class="st0" d="M126.74,88.14c-3.34-2.79-6.6-5.52-9.86-8.24c-0.72-0.6-1.47-1.18-2.17-1.81c-1.06-0.97-1.18-2.3-0.35-3.32
			c0.82-1.02,2.23-1.26,3.32-0.37c4.82,3.97,9.62,7.96,14.37,12.01c1.33,1.14,1.1,2.64-0.43,3.92c-4.18,3.5-8.37,6.98-12.55,10.47
			c-0.42,0.35-0.83,0.71-1.26,1.04c-1.25,0.94-2.52,0.86-3.43-0.2c-0.93-1.09-0.78-2.47,0.46-3.51c3.6-3.03,7.23-6.03,10.84-9.05
			C126,88.82,126.31,88.52,126.74,88.14z"/>
		<path class="st0" d="M97.3,135.77c-1.54,0-3.08,0.03-4.61-0.01c-1.57-0.03-2.55-0.92-2.59-2.29c-0.04-1.4,1-2.42,2.61-2.44
			c3.07-0.03,6.15-0.04,9.22,0c1.61,0.02,2.62,1.05,2.57,2.47c-0.05,1.39-1,2.24-2.59,2.26C100.38,135.79,98.84,135.77,97.3,135.77z
			"/>
		<path class="st0" d="M123.21,45.31c-4.56,0-9.12,0.01-13.68,0c-1.93,0-2.89-0.84-2.86-2.42c0.03-1.49,1.02-2.33,2.83-2.33
			c9.22-0.01,18.44-0.01,27.66,0c1.78,0,2.8,0.89,2.81,2.36c0.01,1.48-1.02,2.38-2.79,2.39C132.53,45.32,127.87,45.31,123.21,45.31z
			"/>
		<path class="st0" d="M59.07,42.94c-0.01,1.29-1.1,2.36-2.39,2.35c-1.29-0.01-2.36-1.1-2.35-2.39c0.01-1.3,1.09-2.36,2.38-2.35
			C58.02,40.57,59.08,41.65,59.07,42.94z"/>
		<path class="st0" d="M66.22,45.3c-1.29-0.01-2.36-1.09-2.36-2.38c0.01-1.3,1.08-2.36,2.38-2.36c1.29,0.01,2.36,1.08,2.36,2.38
			C68.59,44.22,67.5,45.3,66.22,45.3z"/>
		<path class="st0" d="M75.81,40.56c1.29,0.03,2.34,1.13,2.31,2.42c-0.03,1.29-1.14,2.35-2.43,2.31c-1.29-0.03-2.34-1.14-2.31-2.43
			C73.41,41.57,74.51,40.53,75.81,40.56z"/>
	</g>
</g>
</svg>
