<?xml version="1.0" encoding="utf-8"?>
<!-- Generator: Adobe Illustrator 27.0.1, SVG Export Plug-In . SVG Version: 6.00 Build 0)  -->
<svg version="1.1" id="Layer_5" xmlns="http://www.w3.org/2000/svg" xmlns:xlink="http://www.w3.org/1999/xlink" x="0px" y="0px"
	 viewBox="0 0 200 200" style="enable-background:new 0 0 200 200;" xml:space="preserve">
<style type="text/css">
	.st0{fill:#083758;}
	.st1{fill:#9C8760;}
</style>
<g>
	<g>
		<path class="st0" d="M167.57,174.89c-45.11,0-90.23,0-135.34,0c-3.14-0.78-5.76-2.32-7.35-5.24c-0.53-0.98-0.87-2.06-1.3-3.09
			c0-35.01,0-70.02,0-105.04c2.52-6.75,5.13-8.53,12.48-8.53c18.28,0,36.55,0,54.83,0c0.56,0,1.11,0,1.67,0
			c-2.74-2.72-5.5-5.12-8.31-7.47c-1.53-1.27-2.21-2.85-2.2-4.81c0.03-4.21-0.01-8.43,0.02-12.64c0.02-3.47,2.11-5.52,5.6-5.53
			c8.14-0.01,16.29-0.01,24.43,0c3.5,0,5.59,2.04,5.62,5.51c0.03,4.26,0,8.53,0.01,12.79c0.01,1.85-0.65,3.36-2.08,4.57
			c-2.58,2.17-5.12,4.39-7.7,6.57c-0.28,0.24-0.69,0.34-1.03,0.5c0.13,0.17,0.26,0.34,0.39,0.51c0.54,0,1.07,0,1.61,0
			c6.31,0,12.61,0,18.92,0c12.51,0,25.03-0.01,37.54,0.01c4.87,0.01,8.62,2.45,10.17,6.58c0.24,0.64,0.44,1.3,0.66,1.95
			c0,34.91,0,69.83,0,104.74c-0.67,1.51-1.18,3.13-2.06,4.5C172.65,173.12,170.2,174.2,167.57,174.89z M97.29,58.08
			c-0.63,0-1.12,0-1.61,0c-20.32,0-40.64,0-60.96,0c-4.18,0-6.06,1.91-6.06,6.12c0,33.17,0,66.35,0,99.52c0,4.19,1.9,6.09,6.09,6.09
			c43.42,0,86.84,0,130.27,0c4.21,0,6.12-1.89,6.12-6.07c0-33.22,0-66.45,0-99.67c0-4.07-1.92-5.99-6.03-6
			c-20.32-0.01-40.64,0-60.96,0c-0.52,0-1.05,0.06-1.6,0.09c0,2.57,0,4.97,0,7.52c0.67,0,1.26,0,1.84,0c18.58,0,37.16,0,55.74,0
			c3.96,0,5.92,1.98,5.93,5.96c0,4.36,0,8.73,0,13.09c0,4.53-1.78,6.33-6.28,6.33c-18.43,0-36.86,0-55.3,0c-0.63,0-1.25,0-1.9,0
			c0,2.67,0,5.11,0,7.64c0.67,0,1.21,0,1.75,0c7.65,0,15.3-0.01,22.95,0c3.68,0,5.69,2.03,5.7,5.72c0.01,6.35,0.01,12.69,0,19.04
			c-0.01,3.68-2,5.66-5.73,5.68c-3.58,0.02-7.15,0-10.73,0c-4.22,0-8.45-0.01-12.67,0.01c-0.6,0-1.39-0.24-1.39,0.82
			c0,2.22,0,4.44,0,6.81c0.73,0,1.32,0,1.9,0c18.68,0,37.36,0,56.04,0c3.59,0,5.64,2.05,5.65,5.63c0.02,4.46,0,8.93,0,13.39
			c0,4.61-1.75,6.35-6.41,6.35c-18.48,0-36.96,0-55.45-0.01c-0.96,0-1.74-0.06-2.17,1.19c-0.22,0.63-1.38,1.3-2.09,1.28
			c-0.78-0.03-1.92-0.67-2.21-1.34c-0.47-1.1-1.12-1.14-2.05-1.13c-7.75,0.02-15.5,0.02-23.25,0.01c-3.61-0.01-5.6-2.02-5.6-5.65
			c-0.01-4.61-0.01-9.22,0-13.84c0-3.91,1.96-5.88,5.84-5.88c7.65,0,15.3,0,22.95,0c0.53,0,1.06,0,1.6,0c0-2.62,0-5.06,0-7.64
			c-0.76,0-1.4,0-2.04,0c-18.53,0-37.06,0-55.59,0c-3.91,0-5.84-1.95-5.84-5.87c-0.01-6.2,0-12.4,0-18.6c0-4.07,1.93-5.98,6.05-5.98
			c18.58,0,37.16,0,55.74,0c0.58,0,1.15,0,1.72,0c0-2.63,0-5.05,0-7.64c-0.63,0-1.16,0-1.69,0c-3.53,0-7.06,0.02-10.58-0.01
			c-3.38-0.03-5.38-2.02-5.4-5.37c-0.02-4.86-0.02-9.72,0-14.58c0.02-3.4,2.08-5.4,5.53-5.42c3.53-0.01,7.05,0,10.58,0
			c0.52,0,1.05,0,1.59,0C97.29,63.1,97.29,60.73,97.29,58.08z M97.27,103.87c-19.5,0-38.89,0-58.35,0c0,6.74,0,13.4,0,20.13
			c19.48,0,38.87,0,58.35,0C97.27,117.28,97.27,110.66,97.27,103.87z M102.55,85.86c19.5,0,38.92,0,58.34,0c0-5.07,0-10,0-15.01
			c-19.47,0-38.85,0-58.34,0C102.55,75.86,102.55,80.79,102.55,85.86z M102.55,156.96c19.51,0,38.93,0,58.34,0c0-5.07,0-10,0-15.01
			c-19.48,0-38.86,0-58.34,0C102.55,146.96,102.55,151.9,102.55,156.96z M102.55,124c8.45,0,16.82,0,25.27,0c0-6.73,0-13.39,0-20.13
			c-8.44,0-16.81,0-25.27,0C102.55,110.59,102.55,117.25,102.55,124z M99.91,52.21c2.82-2.41,5.53-4.72,8.22-7.05
			c1.5-1.29,3.52-2.37,4.27-4.01c0.75-1.65,0.22-3.88,0.23-5.86c0.01-2.51,0-5.02,0-7.57c-8.58,0-16.97,0-25.48,0
			c0,4.41-0.02,8.71,0.03,13.01c0,0.37,0.3,0.84,0.61,1.1C91.77,45.27,95.77,48.67,99.91,52.21z M97.26,142c-8.49,0-16.89,0-25.28,0
			c0,5.06,0,10,0,14.97c8.48,0,16.88,0,25.28,0C97.26,151.9,97.26,146.97,97.26,142z M84.73,85.91c4.26,0,8.36,0,12.52,0
			c0-5.06,0-10.02,0-15.03c-4.24,0-8.37,0-12.52,0C84.73,75.93,84.73,80.86,84.73,85.91z"/>
		<path class="st0" d="M53.99,91.08c-4.82,0-9.64,0.01-14.45,0c-3.82-0.01-5.78-1.98-5.79-5.77c-0.01-4.66-0.01-9.32,0-13.98
			c0.01-3.57,2.08-5.62,5.66-5.62c9.78-0.01,19.57-0.01,29.35,0c3.66,0,5.71,2.04,5.72,5.72c0.02,4.66,0.02,9.32,0,13.98
			c-0.02,3.7-2.01,5.66-5.74,5.68C63.83,91.09,58.91,91.08,53.99,91.08z M69.33,70.9c-10.25,0-20.34,0-30.41,0c0,5.07,0,10,0,14.98
			c10.17,0,20.26,0,30.41,0C69.33,80.84,69.33,75.91,69.33,70.9z"/>
		<path class="st0" d="M138.06,113.83c0-3.17-0.01-6.34,0-9.51c0.01-3.51,2.05-5.58,5.51-5.59c5.66-0.01,11.32-0.01,16.98,0
			c3.38,0.01,5.49,2.09,5.5,5.47c0.02,6.49,0.02,12.98,0,19.47c-0.01,3.42-2.04,5.48-5.45,5.5c-5.71,0.03-11.42,0.03-17.12,0
			c-3.42-0.02-5.4-2.08-5.41-5.52C138.05,120.37,138.06,117.1,138.06,113.83z M160.87,124.03c0-6.81,0-13.47,0-20.15
			c-5.94,0-11.78,0-17.63,0c0,6.76,0,13.42,0,20.15C149.14,124.03,154.94,124.03,160.87,124.03z"/>
		<path class="st0" d="M47.75,162.17c-2.88,0-5.76,0.03-8.63-0.01c-3.3-0.04-5.35-2.11-5.36-5.43c-0.02-4.8-0.02-9.61,0-14.41
			c0.01-3.46,2.1-5.51,5.6-5.52c5.61-0.01,11.21-0.01,16.82,0c3.5,0.01,5.56,2.05,5.57,5.53c0.01,4.8,0.02,9.61,0,14.41
			c-0.01,3.32-2.05,5.36-5.36,5.42c-0.1,0-0.2,0-0.3,0C53.3,162.17,50.53,162.17,47.75,162.17z M56.59,141.95
			c-5.94,0-11.77,0-17.67,0c0,5.05,0,10.03,0,15.05c5.93,0,11.76,0,17.67,0C56.59,151.99,56.59,147.05,56.59,141.95z"/>
		<path class="st0" d="M102.41,37.85c0,0.89,0.07,1.79-0.02,2.67c-0.14,1.42-1.12,2.28-2.45,2.3c-1.34,0.02-2.42-0.83-2.5-2.22
			c-0.11-1.87-0.11-3.76,0-5.63c0.08-1.36,1.23-2.28,2.5-2.26c1.28,0.02,2.27,0.95,2.47,2.33c0.02,0.15,0.04,0.3,0.04,0.44
			c0,0.79,0,1.58,0,2.38C102.43,37.85,102.42,37.85,102.41,37.85z"/>
	</g>
</g>
</svg>
